<svg id="icon-decode" enable-background="new 0 0 512 512" height="512" viewBox="0 0 512 512" width="512" xmlns="http://www.w3.org/2000/svg"><g><path fill="#ffffff" d="m0 0v512h512v-512zm482 118.922h-154.881l48.625-88.922h106.256zm-236.626 0 48.624-88.922h47.553l-48.625 88.922zm14.431-88.922-48.624 88.922h-181.181v-88.922zm-229.805 452v-333.078h452v333.078z"/><path fill="#ffffff" d="m60.394 60.135h30.002v30h-30.002z"/><path fill="#ffffff" d="m118.559 60.135h30.002v30h-30.002z"/><path fill="#ffffff" d="m221.076 302.534v-119.77h-42.722v30h12.722v89.77z"/><path fill="#ffffff" d="m147.046 221.753c0-22.503-18.308-40.811-40.811-40.811s-40.811 18.308-40.811 40.811v41.278c0 22.503 18.308 40.811 40.811 40.811s40.811-18.308 40.811-40.811zm-30 41.278c0 5.961-4.85 10.811-10.811 10.811s-10.811-4.85-10.811-10.811v-41.278c0-5.961 4.85-10.811 10.811-10.811s10.811 4.85 10.811 10.811z"/><path fill="#ffffff" d="m293.267 303.842c22.503 0 40.811-18.308 40.811-40.811v-41.278c0-22.503-18.308-40.811-40.811-40.811s-40.811 18.308-40.811 40.811v41.278c0 22.504 18.308 40.811 40.811 40.811zm-10.811-82.089c0-5.961 4.85-10.811 10.811-10.811s10.811 4.85 10.811 10.811v41.278c0 5.961-4.85 10.811-10.811 10.811s-10.811-4.85-10.811-10.811z"/><path fill="#ffffff" d="m402.353 180.943c-22.504 0-40.812 18.308-40.812 40.811v41.278c0 22.503 18.308 40.811 40.812 40.811 22.503 0 40.811-18.308 40.811-40.811v-41.278c-.001-22.504-18.309-40.811-40.811-40.811zm10.81 82.088c0 5.961-4.85 10.811-10.811 10.811-5.962 0-10.812-4.85-10.812-10.811v-41.278c0-5.961 4.85-10.811 10.812-10.811 5.961 0 10.811 4.85 10.811 10.811z"/><path fill="#ffffff" d="m140.716 362.983h12.722v89.77h30v-119.77h-42.722z"/><path fill="#ffffff" d="m320.632 362.983h12.722v89.77h30v-119.77h-42.722z"/><path fill="#ffffff" d="m394.372 362.983h12.723v89.77h30v-119.77h-42.723z"/><path fill="#ffffff" d="m66.682 362.983h12.722v89.77h30v-119.77h-42.722z"/><path fill="#ffffff" d="m254.983 331.162c-22.503 0-40.811 18.308-40.811 40.811v41.278c0 22.503 18.308 40.811 40.811 40.811 22.504 0 40.812-18.308 40.812-40.811v-41.278c0-22.503-18.308-40.811-40.812-40.811zm10.812 82.088c0 5.961-4.85 10.811-10.812 10.811-5.961 0-10.811-4.85-10.811-10.811v-41.278c0-5.961 4.85-10.811 10.811-10.811 5.962 0 10.812 4.85 10.812 10.811z"/></g></svg>