<svg id="icon-puppet-show" enable-background="new 0 0 510 510" height="512" viewBox="0 0 510 510" width="512" xmlns="http://www.w3.org/2000/svg"><g><path fill="#ffffff" d="m0 0v390c0 24.813 20.187 45 45 45v75h420v-75c24.813 0 45-20.187 45-45 0-11.219 0-379.451 0-390zm60 221h-30v-131h30zm-30 169v-139h30v139c0 8.271-6.729 15-15 15s-15-6.729-15-15zm45 33.505c9.199-8.245 15-20.209 15-33.505v-300h50.001v174.817l-20.128 5.762 8.256 28.842 111.871-32.024v68.144l-39.902 81.905 7.891 62.554h-132.989zm210.169-186.194c9.452-12.783 14.831-29.815 14.831-42.311 0-24.813-20.187-45-45-45s-45 20.187-45 45c0 13.589 6.322 32.176 16.893 44.943l-56.892 16.286v-166.229h169.999v164.688zm-54.19 185.243 24.609-50.514 57.44 107.96h-74.802zm32.805-207.312c-4.217 7.483-7.971 9.586-8.784 9.752-.813-.167-4.567-2.27-8.784-9.752-4.271-7.577-6.216-15.804-6.216-20.242 0-8.271 6.729-15 15-15s15 6.729 15 15c0 4.438-1.945 12.665-6.216 20.242zm171.216 264.758h-87.99l-77.01-144.742v-71.283l111.469 35.324 9.063-28.599-20.532-6.506v-174.194h50v300c0 13.296 5.801 25.26 15 33.505zm30-75c-8.271 0-15-6.729-15-15v-135h30v135c0 8.271-6.729 15-15 15zm15-180h-30v-135h30zm-450-165v-30h450v30c-16.652 0-426.954 0-450 0z"/></g></svg>