<?xml version="1.0" encoding="iso-8859-1"?>
<!-- Generator: Adobe Illustrator 19.0.0, SVG Export Plug-In . SVG Version: 6.00 Build 0)  -->
<svg version="1.1" id="Capa_1" xmlns="http://www.w3.org/2000/svg" xmlns:xlink="http://www.w3.org/1999/xlink" x="0px" y="0px"
	 viewBox="0 0 512 512" style="enable-background:new 0 0 512 512;" xml:space="preserve">
<g>
	<g>
		<path fill="#ffffff" d="M448.918,242.179L373.134,45.756L256,78.751L138.866,45.756L63.082,242.179H0v103.495h512V242.179H448.918z
			 M157.023,82.038L256,109.919l98.978-27.88l61.785,160.141H95.237L157.023,82.038z M482,315.674H30v-43.495h452V315.674z"/>
	</g>
</g>
<g>
	<g>
		<path fill="#ffffff" d="M265.719,373.289l1.666,16.506c0.063,0.627,0.326,2.977,1.013,6.494h-24.795c0.687-3.516,0.949-5.867,1.012-6.494
			l1.666-16.506H57.827l6.729,19.822c0.271,0.795,6.799,19.69,22.92,37.904c20.472,23.128,47.232,35.229,77.711,35.229
			c2.062,0,4.145-0.056,6.239-0.167c26.99-1.432,48.247-15.19,61.523-39.789h46.103c13.276,24.599,34.533,38.356,61.523,39.789
			c2.097,0.111,4.176,0.167,6.239,0.167c30.477,0,57.241-12.102,77.711-35.229c16.121-18.213,22.649-37.108,22.92-37.904
			l6.729-19.822H265.719z M206.785,411.613c-8.277,15.611-20.363,23.627-36.949,24.507c-34.456,1.824-55.121-17.14-66.213-32.831
			H210.52C209.515,405.963,208.285,408.784,206.785,411.613z M342.164,436.12c-24.194-1.284-35.55-18.97-40.755-32.831h106.965
			C397.272,418.99,376.599,437.949,342.164,436.12z"/>
	</g>
</g>
</svg>
