<?xml version="1.0" standalone="no"?>
<!DOCTYPE svg PUBLIC "-//W3C//DTD SVG 20010904//EN"
 "http://www.w3.org/TR/2001/REC-SVG-20010904/DTD/svg10.dtd">
<svg version="1.0" xmlns="http://www.w3.org/2000/svg"
 width="2000.000000pt" height="2000.000000pt" viewBox="0 0 2000.000000 2000.000000"
 preserveAspectRatio="xMidYMid meet">
<metadata>
Created by potrace 1.11, written by Peter Selinger 2001-2013
</metadata>
<g transform="translate(0.000000,2000.000000) scale(0.100000,-0.100000)"
fill="#000000" stroke="none">
<path d="M17767 15394 c-1 -2 -32 -5 -67 -8 -36 -3 -90 -8 -120 -12 -30 -4
-78 -8 -107 -8 -28 -1 -49 -4 -47 -7 3 -5 -100 -20 -171 -24 -5 0 -16 -4 -22
-8 -7 -5 -13 -6 -13 -2 0 3 -9 1 -20 -5 -15 -8 -20 -8 -20 1 0 8 -4 8 -12 2
-7 -5 -29 -9 -50 -9 -20 1 -34 -2 -32 -5 7 -11 -55 -16 -66 -5 -7 7 -10 7 -10
-1 0 -16 -36 -23 -51 -9 -9 8 -10 8 -4 -2 5 -10 1 -13 -11 -12 -11 1 -21 1
-24 0 -7 -2 -31 -7 -70 -14 -19 -4 -44 -9 -54 -12 -10 -4 -35 -8 -55 -9 -20
-2 -36 -4 -36 -5 0 -1 -7 -3 -15 -5 -8 -2 -26 -7 -40 -10 -14 -4 -36 -8 -50
-10 -14 -2 -25 -4 -25 -5 0 -5 -106 -23 -142 -24 -11 -1 -19 -4 -17 -7 5 -9
-56 -20 -67 -13 -5 3 -9 1 -9 -4 0 -5 -10 -9 -22 -8 -13 1 -25 -2 -28 -6 -3
-4 -19 -9 -35 -12 -46 -9 -64 -13 -150 -37 -44 -12 -92 -22 -107 -23 -14 0
-24 -4 -22 -7 3 -6 -54 -21 -66 -17 -3 1 -14 -4 -26 -10 -11 -6 -32 -13 -45
-16 -13 -3 -39 -9 -58 -15 -19 -6 -38 -8 -42 -5 -5 3 -9 1 -9 -4 0 -13 -117
-45 -132 -36 -6 4 -8 3 -5 -3 7 -12 -38 -27 -52 -18 -5 3 -11 -1 -14 -9 -4 -9
-18 -13 -36 -12 -16 1 -28 -1 -25 -5 3 -6 -36 -20 -56 -21 -3 0 -20 -6 -37
-13 -18 -8 -33 -11 -33 -7 0 4 -4 1 -9 -7 -5 -8 -22 -14 -39 -15 -17 0 -27 -5
-24 -10 3 -5 -2 -7 -11 -3 -10 3 -17 3 -17 -2 0 -6 -26 -17 -90 -36 -3 -1 -13
-5 -22 -9 -9 -4 -22 -4 -29 0 -7 4 -9 3 -6 -3 4 -6 -1 -13 -11 -16 -9 -3 -62
-22 -117 -42 -55 -21 -108 -37 -118 -37 -9 1 -15 -3 -13 -7 5 -8 -71 -37 -86
-33 -5 1 -8 -3 -8 -10 0 -6 -3 -9 -6 -5 -3 3 -22 -3 -42 -13 -36 -19 -94 -42
-100 -41 -1 1 -15 -5 -31 -13 -22 -12 -31 -12 -40 -3 -10 9 -11 8 -6 -4 5 -12
-2 -19 -24 -27 -16 -6 -32 -8 -35 -5 -3 4 -6 1 -6 -5 0 -6 -17 -16 -37 -23
-21 -7 -51 -20 -67 -30 -16 -10 -33 -16 -38 -13 -4 3 -8 0 -8 -5 0 -6 -6 -11
-13 -11 -7 0 -30 -9 -51 -20 -22 -10 -43 -17 -49 -13 -6 4 -7 1 -2 -7 6 -10 3
-12 -13 -8 -13 4 -20 2 -19 -6 1 -6 -8 -11 -20 -10 -12 0 -20 -3 -17 -7 2 -4
-12 -13 -31 -20 -19 -7 -35 -17 -35 -21 0 -4 -8 -8 -17 -8 -10 0 -27 -7 -37
-15 -10 -8 -23 -12 -28 -9 -4 3 -11 -1 -14 -9 -5 -14 -49 -33 -66 -29 -5 1 -8
-2 -8 -7 0 -10 -39 -27 -52 -23 -5 1 -8 -2 -8 -8 0 -8 -66 -42 -73 -38 -1 1
-20 -10 -41 -24 -22 -15 -43 -25 -48 -22 -4 3 -8 1 -8 -5 0 -10 -38 -27 -52
-23 -5 1 -8 -2 -8 -7 0 -5 -21 -20 -47 -33 -27 -14 -65 -35 -87 -47 -21 -12
-45 -20 -53 -17 -8 3 -11 1 -8 -4 7 -12 -65 -58 -113 -72 -4 -1 -13 -8 -20
-15 -8 -7 -19 -10 -25 -6 -7 3 -9 3 -5 -2 8 -9 -108 -84 -129 -85 -7 0 -13 -5
-13 -11 0 -6 -7 -8 -17 -5 -10 4 -14 4 -11 0 11 -11 -41 -47 -58 -40 -8 3 -12
2 -9 -3 9 -16 -15 -23 -33 -10 -14 11 -15 11 -5 0 9 -11 9 -17 -2 -27 -7 -8
-18 -14 -24 -14 -5 0 -16 -6 -23 -12 -19 -18 -69 -48 -90 -55 -10 -3 -18 -9
-18 -13 0 -4 -13 -13 -30 -20 -16 -7 -30 -16 -30 -21 0 -4 -10 -11 -22 -15
-12 -3 -27 -12 -34 -18 -6 -6 -20 -17 -30 -23 -11 -7 -36 -24 -56 -38 -21 -13
-38 -22 -38 -18 0 3 -8 -3 -17 -14 -22 -24 -108 -83 -121 -83 -6 0 -13 -7 -16
-16 -3 -9 -12 -14 -18 -12 -7 3 -21 -6 -32 -19 -10 -14 -25 -22 -33 -19 -8 3
-11 1 -8 -4 3 -6 -2 -10 -11 -10 -10 0 -14 -3 -11 -6 4 -4 -18 -22 -48 -41
-30 -19 -55 -39 -55 -45 0 -6 -3 -9 -6 -5 -4 3 -13 -1 -21 -9 -8 -8 -19 -11
-25 -8 -6 4 -8 2 -5 -3 4 -6 -15 -25 -43 -43 -28 -18 -50 -37 -50 -43 0 -6 -3
-7 -6 -4 -4 4 -22 -7 -41 -23 -19 -17 -39 -27 -45 -24 -6 4 -8 3 -5 -3 4 -6
-6 -19 -21 -28 -15 -10 -39 -29 -54 -42 -14 -14 -31 -22 -37 -18 -7 3 -10 3
-9 -2 3 -10 -65 -73 -78 -73 -5 0 -26 -16 -46 -36 -21 -19 -43 -32 -48 -29 -6
4 -9 2 -8 -3 4 -13 -42 -53 -54 -46 -4 3 -7 2 -6 -3 2 -4 0 -9 -4 -11 -4 -2
-26 -21 -49 -43 -31 -29 -47 -38 -63 -34 -15 5 -17 4 -7 -3 11 -8 9 -13 -9
-28 -13 -11 -40 -34 -62 -53 -21 -18 -38 -31 -38 -28 0 3 -18 -12 -40 -34 -22
-22 -40 -37 -40 -34 0 3 -11 -4 -24 -17 -13 -13 -45 -41 -71 -63 -27 -22 -55
-48 -64 -57 -8 -10 -19 -18 -24 -18 -4 0 -21 -14 -37 -31 -18 -20 -33 -28 -41
-24 -7 5 -10 4 -6 -2 4 -6 -5 -22 -19 -34 -15 -13 -39 -36 -55 -51 -16 -16
-31 -28 -34 -28 -3 0 -23 -18 -45 -40 -22 -22 -43 -40 -48 -40 -4 0 -13 -9
-20 -20 -7 -12 -18 -18 -24 -14 -6 4 -8 3 -5 -3 5 -7 -33 -51 -40 -46 -1 1
-38 -34 -84 -78 -45 -43 -86 -76 -91 -73 -5 3 -7 1 -6 -4 4 -11 -106 -122
-121 -122 -6 0 -10 -6 -9 -12 2 -7 -5 -12 -14 -12 -10 1 -16 -2 -13 -6 7 -11
-135 -146 -149 -142 -6 2 -8 0 -4 -3 9 -9 -122 -145 -140 -145 -6 0 -11 -4
-10 -9 4 -11 -153 -167 -164 -163 -4 1 -7 -2 -6 -7 5 -15 -81 -103 -94 -95 -7
4 -8 3 -4 -4 8 -14 -91 -118 -107 -114 -7 2 -9 0 -4 -4 10 -11 -44 -65 -57
-57 -6 3 -8 3 -4 -2 10 -11 -10 -45 -27 -45 -8 0 -14 -4 -13 -9 2 -5 -14 -25
-34 -45 -21 -20 -38 -38 -38 -40 0 -10 -75 -81 -83 -78 -4 1 -6 -1 -3 -6 3 -5
-5 -18 -17 -29 -12 -11 -35 -36 -52 -56 -16 -19 -34 -33 -39 -30 -5 4 -6 1 -3
-4 8 -13 -27 -46 -38 -36 -4 5 -5 2 -1 -5 8 -13 -18 -45 -28 -35 -3 4 -6 1 -6
-6 0 -7 -13 -27 -29 -44 -59 -65 -97 -107 -146 -164 -27 -32 -66 -75 -86 -95
-20 -21 -35 -38 -33 -38 2 0 -10 -14 -26 -30 -17 -17 -30 -36 -30 -41 0 -6 -7
-8 -16 -5 -9 3 -12 2 -9 -4 4 -6 -3 -21 -14 -33 -46 -51 -75 -84 -105 -120
-17 -21 -41 -49 -53 -63 -12 -13 -34 -39 -48 -59 -15 -19 -32 -32 -39 -28 -6
3 -8 3 -4 -2 10 -10 -31 -67 -43 -59 -5 3 -8 1 -7 -4 4 -12 -150 -202 -163
-202 -5 0 -9 -5 -9 -11 0 -17 -47 -69 -55 -61 -4 4 -5 3 -3 -3 1 -5 -24 -44
-57 -85 -105 -131 -105 -131 -114 -125 -5 2 -8 -1 -7 -8 1 -14 -32 -61 -77
-108 -15 -17 -27 -32 -27 -35 0 -16 -75 -94 -87 -90 -7 3 -13 1 -13 -4 0 -6 5
-10 11 -10 8 0 8 -5 -1 -15 -7 -8 -17 -12 -23 -8 -6 3 -7 1 -3 -6 10 -15 -13
-43 -30 -37 -8 3 -11 0 -8 -9 3 -7 -4 -24 -15 -37 -34 -40 -55 -66 -85 -108
-17 -22 -33 -40 -38 -40 -4 0 -8 -7 -8 -15 0 -8 -9 -20 -20 -27 -11 -7 -20
-17 -20 -21 0 -5 -6 -14 -12 -22 -17 -17 -51 -61 -89 -113 -17 -23 -36 -39
-41 -35 -6 3 -8 1 -5 -4 4 -6 -4 -22 -18 -37 -13 -14 -21 -26 -17 -26 4 0 0
-6 -8 -13 -8 -7 -35 -38 -58 -70 -24 -32 -59 -74 -77 -93 -18 -19 -30 -34 -27
-34 4 0 0 -6 -9 -13 -8 -7 -30 -33 -48 -59 -17 -27 -35 -48 -39 -48 -4 0 -16
-14 -26 -30 -9 -17 -22 -28 -27 -24 -5 3 -9 2 -8 -3 4 -15 -13 -43 -22 -37 -5
3 -9 0 -9 -7 0 -6 -15 -28 -32 -48 -18 -21 -44 -51 -57 -67 -23 -27 -127 -147
-178 -204 -13 -13 -23 -29 -23 -33 0 -5 -7 -6 -16 -3 -8 3 -13 2 -10 -3 8 -12
-29 -43 -39 -34 -4 5 -5 2 -1 -5 9 -15 -126 -156 -139 -144 -5 4 -5 2 -2 -4 8
-14 -26 -47 -38 -37 -4 5 -5 3 -2 -3 8 -13 -46 -67 -57 -57 -4 5 -6 1 -4 -7 2
-8 -3 -14 -9 -13 -7 2 -12 -1 -10 -7 3 -14 -124 -130 -136 -123 -6 3 -7 1 -4
-4 4 -6 -19 -33 -51 -59 -31 -27 -58 -52 -60 -56 -2 -5 -8 -8 -14 -8 -6 0 -19
-9 -29 -21 -10 -12 -23 -18 -30 -13 -7 4 -9 3 -5 -4 9 -15 -81 -82 -102 -75
-13 4 -14 3 -3 -5 16 -12 -3 -27 -21 -16 -7 5 -8 3 -4 -5 5 -8 0 -14 -13 -18
-11 -3 -19 -9 -16 -13 5 -7 -44 -35 -57 -32 -5 1 -8 -2 -8 -8 0 -5 -21 -21
-47 -36 -27 -15 -55 -33 -63 -40 -33 -27 -221 -115 -232 -108 -6 4 -8 3 -5 -3
8 -12 -71 -45 -87 -36 -6 3 -8 2 -3 -2 7 -8 -40 -29 -88 -39 -11 -3 -34 -9
-52 -15 -17 -5 -34 -7 -37 -3 -3 3 -6 1 -6 -4 0 -5 -8 -10 -17 -11 -10 0 -38
-4 -63 -9 -106 -17 -342 -9 -425 16 -16 5 -55 17 -85 26 -77 22 -281 125 -273
137 3 6 1 7 -6 3 -6 -4 -18 -1 -26 6 -31 28 -44 38 -51 38 -17 0 -113 83 -107
93 3 5 1 7 -4 4 -12 -7 -55 27 -161 130 -68 65 -74 74 -61 90 13 17 13 17 -4
4 -16 -13 -20 -11 -40 14 -12 15 -32 38 -45 51 -12 13 -22 28 -22 34 0 6 -4 8
-10 5 -5 -3 -10 -1 -10 4 0 11 -9 23 -62 84 -15 18 -26 37 -23 44 2 7 -2 10
-11 6 -7 -3 -14 0 -14 6 0 6 0 13 -1 15 0 3 -15 21 -33 41 -18 19 -39 48 -47
63 -8 15 -20 33 -27 40 -7 8 -9 18 -6 24 4 6 3 8 -3 5 -13 -8 -46 50 -37 65 4
6 3 8 -3 5 -5 -3 -17 7 -27 24 -9 16 -14 29 -9 29 4 0 3 4 -3 8 -16 10 -66 92
-57 92 5 0 3 4 -3 8 -18 11 -84 154 -77 165 3 6 1 7 -5 3 -11 -7 -16 7 -15 41
1 7 -3 11 -7 8 -11 -7 -43 63 -35 75 3 6 2 10 -2 10 -16 0 -126 277 -119 297
3 8 2 12 -2 9 -5 -3 -13 8 -19 25 -8 21 -8 27 0 22 6 -4 1 7 -11 24 -17 23
-19 33 -9 43 9 10 9 11 0 6 -12 -7 -14 -3 -17 37 -1 6 -5 15 -9 18 -5 3 -9 22
-10 41 -1 20 -5 34 -8 32 -7 -4 -20 40 -39 126 -7 30 -15 62 -18 70 -7 20 -9
30 -16 67 -3 18 -10 42 -15 55 -5 13 -7 35 -5 51 1 15 -1 25 -5 22 -11 -6 -24
92 -15 107 4 7 3 8 -4 4 -8 -5 -12 3 -13 23 -1 30 -4 48 -9 54 -6 8 -24 138
-24 185 -1 17 -3 32 -6 32 -4 0 -6 10 -7 23 -1 12 -4 32 -7 45 -3 13 -8 58
-11 100 -3 42 -8 100 -10 127 -3 28 -7 87 -9 132 -2 45 -7 86 -10 92 -4 6 -2
11 5 11 9 0 9 3 0 14 -9 10 -9 16 -1 21 8 5 8 11 -1 21 -9 11 -8 18 2 31 10
11 10 14 2 9 -17 -9 -17 6 -1 23 8 8 8 11 2 8 -13 -8 -14 319 -1 340 4 6 3 14
-1 17 -7 4 -9 51 -2 51 2 0 6 71 10 175 2 36 7 70 12 77 5 7 5 14 -2 18 -6 3
-7 11 -4 17 4 6 8 51 11 101 2 56 9 94 16 99 9 6 9 8 -2 8 -9 0 -11 6 -6 18 4
9 7 34 6 55 -2 39 6 45 28 25 8 -7 11 -8 8 -2 -6 10 45 -2 103 -24 8 -3 18 -5
22 -4 4 1 20 -3 35 -9 15 -6 39 -13 53 -15 14 -3 32 -7 40 -11 8 -3 18 -7 23
-8 4 -2 8 -3 10 -5 1 -1 11 -3 22 -6 11 -2 35 -6 52 -10 18 -3 30 -10 28 -15
-3 -4 2 -6 12 -5 10 2 29 -1 43 -7 14 -5 34 -12 44 -14 10 -2 25 -11 33 -21 8
-9 11 -11 7 -3 -5 11 -3 13 10 8 10 -4 22 -7 28 -7 6 0 5 -8 -3 -17 -13 -16
-12 -17 3 -5 15 12 27 10 85 -9 37 -13 73 -24 78 -26 48 -13 141 -48 146 -55
3 -5 10 -8 15 -7 5 1 16 -1 24 -4 8 -4 49 -19 91 -34 42 -16 77 -32 78 -38 2
-5 5 -12 8 -15 4 -3 3 1 -1 8 -9 15 -5 15 31 0 15 -6 30 -12 33 -13 31 -8 49
-18 45 -25 -3 -4 4 -6 15 -3 11 3 20 0 20 -6 0 -6 9 -11 20 -11 11 0 48 -13
82 -29 35 -15 80 -34 101 -42 20 -7 37 -17 37 -22 0 -4 4 -6 9 -3 4 3 17 -1
27 -9 10 -8 27 -15 37 -15 9 0 17 -5 17 -11 0 -5 5 -7 10 -4 6 3 13 -1 16 -9
3 -9 10 -14 14 -11 9 6 81 -25 91 -38 3 -5 9 -8 13 -8 19 3 27 0 22 -8 -3 -4
2 -8 12 -8 23 0 82 -25 82 -35 0 -4 6 -8 14 -8 22 0 66 -26 58 -35 -4 -5 -2
-5 5 -2 13 8 245 -108 235 -117 -3 -4 2 -4 12 0 15 6 17 4 11 -6 -5 -8 -4 -11
3 -6 11 7 51 -11 63 -27 3 -5 10 -9 15 -9 19 -1 53 -21 49 -28 -3 -4 1 -7 8
-6 20 2 186 -88 180 -98 -4 -5 -1 -6 5 -2 6 3 18 -1 26 -10 9 -8 16 -13 16 -9
0 3 18 -4 40 -16 21 -12 36 -27 33 -32 -3 -6 -1 -7 5 -3 11 6 50 -8 62 -23 3
-4 16 -12 30 -19 56 -28 115 -63 121 -73 3 -6 10 -11 15 -12 5 -1 8 -6 6 -10
-1 -5 2 -6 7 -3 5 4 25 -2 43 -12 53 -30 143 -86 148 -93 3 -3 12 -8 20 -12
41 -18 155 -97 153 -106 -2 -6 4 -8 12 -5 8 4 31 -6 49 -20 19 -14 39 -26 45
-26 6 0 11 -4 11 -10 0 -5 7 -10 15 -10 8 0 15 -4 15 -10 0 -5 4 -10 10 -10
10 0 131 -76 140 -88 3 -4 17 -13 32 -21 15 -8 25 -19 21 -24 -3 -6 -1 -7 5
-3 6 3 17 -1 25 -9 9 -8 18 -15 22 -15 14 0 84 -53 79 -61 -3 -5 1 -6 8 -4 8
3 23 -4 35 -15 12 -11 27 -20 33 -20 5 0 10 -4 10 -10 0 -5 7 -10 16 -10 10 0
14 -6 11 -14 -4 -9 0 -12 11 -10 9 2 32 -9 51 -26 18 -16 40 -30 47 -30 7 0
17 -6 21 -13 4 -6 28 -26 53 -42 25 -16 47 -32 50 -35 3 -3 34 -25 70 -49 36
-24 67 -47 70 -50 3 -3 28 -21 55 -40 36 -25 14 0 -77 89 -72 69 -125 128
-121 134 3 6 3 8 -2 4 -11 -11 -47 11 -39 24 4 6 3 8 -3 5 -6 -4 -26 11 -45
33 -20 22 -38 37 -42 33 -3 -3 -6 1 -6 10 0 9 -5 17 -10 17 -6 0 -29 18 -51
40 -22 22 -43 40 -46 40 -2 0 -23 18 -45 40 -23 22 -45 40 -50 40 -5 0 -6 5
-3 10 3 6 1 10 -4 10 -12 0 -51 32 -107 87 -17 17 -35 29 -38 26 -12 -12 -6
13 7 27 10 12 9 12 -6 0 -15 -11 -21 -10 -45 12 -15 14 -37 34 -49 43 -12 10
-19 23 -16 28 3 6 1 7 -5 3 -6 -3 -19 2 -29 12 -10 11 -38 35 -63 53 -53 40
-95 75 -127 107 -13 12 -26 22 -29 22 -15 0 -83 64 -77 73 3 6 1 7 -5 3 -7 -4
-23 4 -36 17 -14 14 -27 22 -30 20 -3 -3 -8 2 -12 11 -3 9 -11 16 -18 16 -6 0
-19 8 -28 18 -20 20 -33 31 -71 55 -15 10 -25 23 -21 29 4 7 3 8 -5 4 -13 -9
-43 18 -33 29 4 5 1 5 -5 1 -7 -4 -18 -2 -25 4 -7 6 -35 27 -63 48 -27 20 -52
40 -53 45 -2 4 -10 7 -18 7 -8 0 -14 3 -14 8 0 4 -18 18 -40 32 -22 13 -40 28
-40 32 0 4 -5 8 -11 8 -19 0 -99 63 -92 73 3 6 1 7 -5 3 -14 -9 -154 88 -144
100 4 5 3 6 -2 2 -12 -10 -48 10 -41 22 3 6 -1 7 -9 4 -9 -4 -18 1 -22 10 -3
9 -10 13 -15 10 -5 -3 -9 0 -9 5 0 6 -7 11 -15 11 -9 0 -18 7 -21 15 -4 8 -9
13 -14 10 -4 -2 -16 4 -26 14 -11 10 -24 20 -29 22 -36 15 -95 56 -95 66 0 7
-6 10 -13 7 -7 -2 -23 5 -35 16 -12 11 -25 21 -29 22 -5 0 -25 12 -46 25 -21
13 -49 29 -63 35 -13 6 -24 15 -24 20 0 4 -7 8 -16 8 -9 0 -12 5 -8 12 5 7 3
8 -5 4 -7 -5 -20 -2 -29 6 -9 8 -34 23 -55 33 -25 14 -36 25 -32 35 5 12 3 12
-6 3 -9 -9 -17 -8 -36 4 -44 29 -87 53 -115 64 -16 6 -25 16 -21 22 3 5 1 7
-5 3 -10 -6 -81 29 -93 47 -3 5 -10 9 -15 9 -8 0 -111 50 -186 90 -15 8 -25
18 -21 22 4 4 0 4 -9 1 -8 -3 -22 0 -29 8 -8 7 -18 14 -22 14 -19 2 -66 26
-63 32 2 3 -8 7 -22 8 -14 0 -31 7 -36 15 -6 7 -18 14 -26 16 -8 2 -57 23
-109 48 -51 24 -99 44 -107 44 -8 0 -14 5 -14 10 0 6 -7 10 -15 10 -8 0 -43
14 -77 30 -34 17 -66 30 -73 30 -6 0 -22 8 -35 17 -14 10 -29 18 -35 18 -24 2
-65 18 -61 24 2 3 -7 7 -21 7 -13 1 -34 10 -45 20 -15 13 -19 14 -14 4 7 -13
6 -13 -6 0 -7 8 -24 16 -37 18 -14 1 -38 9 -54 17 -17 8 -36 15 -44 15 -7 0
-13 5 -13 12 0 6 -3 9 -6 5 -5 -5 -59 10 -104 30 -8 3 -18 5 -22 5 -5 -1 -8 2
-8 8 0 5 -7 7 -15 4 -8 -4 -15 -2 -15 3 0 5 -11 10 -23 11 -13 1 -36 8 -52 16
-15 8 -36 13 -46 11 -11 -2 -19 0 -19 4 0 10 -130 7 -185 -4 -22 -5 -48 -8
-57 -9 -9 0 -14 -5 -11 -10 4 -5 -1 -7 -11 -3 -9 4 -14 3 -11 -2 3 -5 -4 -13
-16 -16 -22 -7 -107 -62 -124 -80 -25 -27 -75 -95 -75 -103 0 -4 -9 -18 -20
-30 -12 -12 -19 -22 -16 -22 3 0 -2 -17 -11 -37 -8 -21 -17 -47 -18 -58 -8
-58 -17 -90 -28 -97 -9 -6 -9 -8 -1 -8 9 0 9 -10 2 -37 -5 -21 -9 -50 -9 -65
1 -15 -3 -29 -8 -32 -5 -3 -7 -16 -3 -28 3 -11 1 -19 -4 -16 -5 4 -9 -15 -8
-40 0 -31 -5 -52 -15 -60 -9 -8 -10 -11 -3 -7 9 5 11 -6 6 -47 -3 -29 -6 -63
-5 -75 0 -12 -4 -25 -10 -29 -6 -4 -7 -9 -2 -13 5 -3 7 -28 5 -54 -4 -43 -6
-46 -21 -35 -14 12 -15 11 -1 -5 18 -24 16 -273 -3 -296 -9 -12 -9 -13 1 -7 9
6 12 -20 13 -116 1 -282 4 -343 14 -350 6 -5 6 -8 -1 -8 -8 0 -10 -11 -5 -32
8 -42 7 -70 -2 -86 -5 -6 -4 -12 0 -12 9 0 14 -41 17 -127 0 -24 4 -43 7 -43
10 0 5 -34 -6 -42 -6 -5 -6 -8 1 -8 6 0 12 -10 12 -22 0 -31 12 -133 21 -185
6 -30 5 -43 -3 -43 -8 0 -7 -3 1 -8 10 -6 15 -33 28 -147 2 -16 4 -30 5 -30 2
0 8 -33 15 -75 3 -19 7 -44 10 -55 9 -44 15 -82 19 -121 2 -23 8 -50 14 -60 5
-10 13 -35 16 -54 3 -19 10 -52 15 -72 5 -20 6 -39 3 -42 -3 -4 0 -6 7 -6 7 0
10 -4 6 -9 -3 -5 -2 -12 3 -15 4 -2 8 -17 7 -33 0 -15 4 -31 9 -35 5 -3 10
-21 11 -40 1 -18 10 -48 19 -66 9 -17 14 -32 12 -32 -3 0 1 -18 9 -39 7 -22
11 -42 8 -45 -4 -3 -1 -6 6 -6 7 0 9 -5 6 -10 -4 -6 -1 -17 5 -25 7 -8 10 -24
7 -35 -3 -11 0 -23 7 -28 16 -10 49 -109 41 -122 -4 -6 -1 -9 6 -8 9 2 13 -7
13 -24 -1 -15 3 -25 7 -22 5 3 9 -4 9 -15 0 -11 5 -23 10 -26 6 -3 10 -13 10
-21 0 -8 9 -34 20 -56 11 -23 20 -45 20 -50 0 -10 55 -132 81 -180 11 -21 18
-42 15 -47 -4 -5 -2 -11 3 -13 5 -1 27 -41 50 -86 35 -70 40 -86 30 -100 -11
-14 -11 -15 1 -5 11 10 18 5 39 -30 14 -23 26 -49 28 -57 1 -8 7 -16 13 -18 5
-2 8 -8 4 -13 -3 -5 1 -9 8 -9 9 0 9 -3 -2 -10 -13 -9 -13 -10 0 -10 19 0 63
-67 54 -82 -5 -7 -2 -8 6 -3 10 6 12 3 8 -13 -4 -15 -2 -19 8 -15 8 3 14 -1
14 -10 0 -8 4 -17 9 -19 5 -1 11 -9 13 -17 2 -8 15 -28 30 -44 16 -17 28 -36
28 -43 0 -8 5 -14 10 -14 6 0 10 -7 10 -15 0 -8 5 -15 11 -15 6 0 8 -7 5 -16
-3 -8 -2 -12 4 -9 11 7 32 -29 22 -40 -4 -5 -2 -5 5 -1 12 6 80 -81 75 -96 -1
-5 2 -7 7 -5 4 1 27 -22 50 -51 43 -54 78 -94 119 -137 12 -13 22 -29 22 -35
0 -6 4 -9 9 -6 9 6 26 -22 22 -37 -1 -5 2 -6 6 -4 5 3 17 -1 28 -9 10 -8 16
-14 12 -14 -3 0 10 -16 30 -35 20 -19 40 -35 44 -35 4 0 11 -9 14 -20 4 -11
10 -18 14 -16 4 3 14 -3 22 -12 14 -15 61 -57 144 -127 17 -14 34 -25 38 -25
5 0 5 -5 1 -12 -4 -6 -3 -8 3 -5 13 8 55 -27 45 -38 -4 -5 -1 -5 5 -1 12 6 74
-29 81 -46 2 -5 9 -8 16 -8 7 0 22 -9 35 -21 12 -12 29 -22 37 -23 9 -1 19 -7
22 -12 4 -5 24 -17 45 -27 24 -10 35 -22 31 -29 -4 -7 -3 -8 5 -4 11 7 31 0
115 -40 16 -8 35 -14 43 -14 7 0 13 -4 13 -10 0 -5 3 -9 8 -8 4 2 21 -2 37 -9
34 -13 56 -20 68 -22 4 0 22 -7 41 -15 19 -8 37 -12 40 -8 3 3 6 1 6 -4 0 -5
10 -10 23 -11 23 -2 62 -10 62 -13 0 -1 11 -3 25 -5 68 -9 94 -15 101 -26 5
-8 8 -8 11 2 3 8 11 10 24 4 10 -4 34 -7 53 -6 19 2 37 -3 42 -11 6 -9 9 -9 9
-1 0 8 9 9 30 3 17 -5 30 -6 30 -2 0 4 27 7 59 7 33 0 57 -4 54 -8 -3 -5 3 -5
13 0 11 5 43 9 71 9 29 -1 53 1 53 4 0 3 15 7 33 8 18 1 44 5 57 8 14 3 37 7
51 8 14 2 31 6 38 10 7 5 15 5 18 2 3 -3 12 -1 19 4 6 6 16 10 20 9 5 -1 16 0
24 3 22 9 123 40 135 42 6 1 42 14 82 30 40 15 76 28 80 28 4 0 13 4 20 10 7
5 18 6 24 2 8 -4 9 -3 5 4 -6 11 6 16 27 13 4 0 7 4 7 10 0 6 7 8 16 5 8 -3
13 -2 10 2 -7 12 93 54 106 46 6 -4 8 -3 4 4 -3 6 8 17 25 26 26 13 35 14 48
3 14 -11 14 -10 2 6 -12 15 -10 18 18 28 17 6 31 15 31 20 0 5 7 9 15 9 8 0
15 5 15 11 0 6 7 8 16 5 8 -3 13 -2 10 3 -3 4 10 16 28 27 45 26 110 70 178
121 31 24 61 43 66 43 5 0 12 7 16 15 3 8 12 12 21 9 11 -5 14 -2 8 12 -5 14
-3 16 11 11 10 -4 15 -3 11 3 -3 6 -3 10 2 10 8 0 29 17 101 81 19 16 38 26
43 23 5 -3 9 2 9 10 0 8 17 28 37 43 21 15 48 40 61 56 13 15 28 25 33 21 5
-3 9 2 9 10 0 9 5 16 10 16 6 0 24 16 41 35 17 19 36 32 42 28 5 -3 7 -1 4 4
-8 13 27 46 37 36 4 -5 6 -3 4 3 -3 12 152 170 164 167 4 -2 7 3 5 10 -1 6 4
11 11 9 8 -1 11 1 8 6 -6 11 39 64 48 55 3 -3 6 2 6 11 0 12 5 16 14 13 10 -4
13 -1 10 7 -3 7 11 27 31 45 20 17 33 31 30 31 -3 0 9 15 27 33 18 19 58 62
88 98 30 35 65 75 77 89 13 14 23 28 23 32 0 5 7 8 16 8 8 0 13 3 10 8 -2 4
14 28 37 54 23 26 53 62 67 80 14 18 39 48 56 65 18 18 30 33 28 33 -5 0 33
46 68 83 15 15 26 29 25 30 -5 6 56 76 63 72 4 -3 7 3 6 13 0 9 5 16 12 14 6
-1 11 4 10 10 -2 7 3 12 10 10 8 -1 11 2 7 8 -4 6 13 34 37 63 24 29 81 100
127 160 46 59 88 107 92 107 5 0 8 3 7 8 -5 12 39 62 47 54 5 -4 5 -2 2 4 -3
5 4 22 16 36 12 15 33 41 47 59 14 18 37 45 51 60 15 16 24 30 21 33 -3 3 3 8
12 12 9 3 16 11 16 18 0 16 37 46 46 38 4 -4 4 -2 0 5 -4 7 2 21 14 33 11 11
20 24 20 28 0 15 36 43 44 35 4 -5 6 -3 5 2 -5 14 33 75 43 69 4 -3 8 1 8 8 0
8 13 28 29 45 15 17 31 39 34 48 4 9 11 13 17 10 5 -3 10 1 10 10 0 9 5 13 10
10 6 -4 10 -3 9 2 -4 23 2 35 17 29 8 -3 13 -2 9 3 -6 11 5 42 14 37 7 -4 32
20 30 30 -1 3 13 21 29 40 17 19 30 36 29 37 -5 6 48 55 55 51 5 -3 7 -2 6 3
-5 16 47 83 60 78 7 -3 10 0 7 6 -4 6 0 18 9 27 60 64 236 276 236 285 0 4 5
5 10 2 6 -3 10 -2 10 3 0 5 9 20 21 33 11 13 39 46 62 73 23 27 53 61 67 76
27 30 102 116 145 168 15 17 32 29 37 25 6 -3 8 -1 5 5 -8 12 90 118 105 114
5 -1 7 2 3 8 -6 10 44 67 57 63 4 -2 4 5 1 14 -5 12 -2 15 10 10 12 -4 14 -2
10 10 -5 13 -2 15 11 10 9 -4 15 -3 12 1 -3 5 2 19 10 31 11 15 22 20 37 16
18 -5 19 -4 7 5 -13 9 -11 14 13 35 15 14 26 25 24 25 -3 0 12 19 33 41 25 27
42 39 50 34 9 -6 11 -4 5 4 -8 14 33 63 46 55 5 -3 6 2 3 10 -4 11 0 16 11 16
9 0 14 4 11 8 -7 12 40 52 50 44 4 -4 4 -2 1 4 -4 6 6 22 21 36 15 14 56 57
92 97 36 39 70 69 77 67 7 -3 10 0 7 7 -2 7 21 36 51 66 30 30 55 58 55 63 0
4 7 8 15 8 8 0 15 5 15 11 0 5 5 7 12 3 6 -4 8 -3 5 3 -7 10 45 66 60 64 4 -1
8 3 8 8 0 16 89 100 99 94 5 -4 6 -2 3 4 -8 13 47 66 57 56 4 -5 6 -1 4 7 -2
8 3 14 10 12 8 -1 11 1 8 6 -8 13 93 104 106 96 7 -4 8 -3 4 4 -7 12 100 119
115 114 5 -1 8 4 7 10 -2 7 3 12 10 10 8 -1 11 1 8 6 -6 10 104 108 116 104 4
-1 7 4 6 10 -2 7 3 12 10 10 6 -1 11 2 10 6 -3 8 31 41 162 161 25 22 50 39
57 36 8 -2 10 2 6 12 -5 12 -2 15 10 10 11 -4 14 -2 10 9 -3 7 -1 14 5 14 5 0
31 20 57 45 25 25 51 42 57 39 6 -4 8 -3 5 3 -4 5 5 20 18 31 14 12 25 20 25
17 0 -2 18 14 41 36 22 22 45 36 51 33 6 -4 8 -2 4 4 -3 6 2 17 12 24 11 7 41
32 68 55 27 23 60 51 74 62 14 11 32 26 40 33 8 7 16 12 18 10 2 -2 13 7 24
20 11 13 24 22 29 21 5 -2 9 1 9 6 0 5 25 29 56 55 42 34 62 45 78 41 16 -5
18 -4 6 4 -8 5 -12 12 -10 14 3 2 25 19 50 37 25 19 48 39 52 45 4 5 8 7 8 3
0 -4 13 5 29 20 44 40 61 53 61 47 0 -3 8 3 18 13 27 24 50 43 107 82 27 19
56 41 63 48 8 7 18 9 24 6 6 -4 8 -2 5 3 -4 6 17 27 47 47 30 20 61 42 68 49
7 7 27 22 43 32 17 11 53 36 81 57 28 21 54 38 58 38 4 0 14 7 23 15 8 8 19
13 24 9 5 -3 8 0 7 8 -2 7 5 12 14 12 10 -1 16 1 14 5 -3 4 13 18 35 31 21 14
39 28 39 32 0 5 3 7 8 6 4 -2 23 9 43 25 20 15 41 27 47 27 7 0 12 5 12 10 0
6 8 14 18 17 9 4 29 15 44 26 14 11 31 16 37 12 7 -4 10 -1 9 7 -2 7 5 12 14
12 10 -1 16 3 15 10 -1 6 6 10 16 10 10 -1 16 1 13 4 -3 3 17 21 45 40 41 27
53 32 61 21 8 -12 9 -11 6 1 -3 8 9 23 26 35 58 39 131 79 139 77 4 -1 10 5
13 13 4 8 10 15 15 15 5 0 38 18 74 40 36 22 65 36 65 32 0 -4 4 -2 8 3 17 25
170 105 188 99 15 -5 16 -4 5 4 -12 9 -10 12 12 17 15 4 27 11 27 15 0 5 10
12 23 16 12 4 39 18 60 31 20 13 37 20 37 16 0 -5 4 -2 9 5 5 8 20 15 34 15
14 1 23 5 21 9 -6 10 176 99 188 92 6 -4 8 -3 5 3 -8 13 78 54 100 47 12 -4
14 -3 6 3 -8 6 5 16 40 32 29 13 73 34 99 47 27 13 50 24 53 24 3 0 27 11 54
24 27 14 51 22 55 19 3 -4 6 -1 6 5 0 7 9 12 19 12 11 0 23 5 26 10 4 6 11 8
16 5 5 -4 9 -2 9 3 0 9 40 24 56 21 4 0 10 3 13 8 6 8 56 34 76 39 6 1 28 10
50 20 42 19 59 24 88 28 10 1 22 7 25 13 7 10 51 24 63 20 3 -1 13 6 23 16 14
14 34 21 49 16 1 0 15 6 31 15 16 8 33 13 38 10 4 -3 8 -1 8 4 0 8 11 13 63
27 4 2 9 4 12 5 3 1 8 3 13 5 4 1 20 7 36 14 16 6 31 9 34 7 2 -3 11 2 19 10
8 8 18 12 23 9 5 -3 11 -1 15 5 3 5 16 10 29 10 12 0 26 4 32 8 5 5 29 15 54
22 25 8 50 18 57 22 6 5 14 5 18 -2 3 -5 12 -10 18 -10 7 0 6 4 -3 10 -12 8
-11 10 8 10 12 0 22 4 22 9 0 4 10 7 23 7 12 -1 28 2 36 8 15 11 35 17 68 20
11 0 19 5 16 10 -3 5 6 7 20 4 15 -3 24 -1 21 3 -5 8 1 10 39 13 6 1 14 4 17
8 3 4 18 9 33 12 15 2 41 9 59 15 147 47 164 50 153 29 -4 -7 0 -5 8 4 8 10
17 15 20 11 4 -3 7 -1 7 5 0 6 8 11 18 10 9 0 42 7 74 16 31 8 67 18 80 20 12
3 41 10 63 15 22 5 41 8 44 6 2 -3 10 0 17 6 8 6 20 9 28 6 8 -3 16 -2 18 3 2
5 17 11 33 13 17 2 36 7 43 11 7 4 12 5 12 1 0 -3 10 -1 21 6 17 9 20 8 13 -3
-6 -11 -5 -11 9 1 9 7 24 11 32 7 8 -3 15 -1 15 5 0 6 7 9 15 5 8 -3 15 -2 15
2 0 4 13 8 28 9 32 2 57 7 123 22 83 19 131 22 148 9 14 -11 14 -11 3 3 -10
14 -10 18 3 23 8 3 15 1 15 -5 0 -6 7 -6 21 1 15 9 24 8 35 -1 12 -10 15 -10
12 1 -2 10 9 15 37 18 22 2 56 5 75 6 19 2 44 7 54 12 11 4 42 8 68 8 26 1 48
4 48 7 0 6 88 17 185 25 23 1 47 4 54 6 8 2 16 -3 19 -11 3 -8 0 -11 -7 -7 -6
4 -2 -9 10 -28 11 -19 18 -40 14 -46 -3 -5 -1 -10 6 -10 6 0 9 -8 6 -20 -3
-11 -1 -18 4 -14 9 5 12 -9 12 -48 0 -10 4 -18 9 -18 6 0 8 -7 4 -15 -3 -8 -1
-15 5 -15 5 0 9 -6 8 -12 -1 -7 2 -21 6 -32 5 -11 3 -27 -5 -40 -12 -18 -11
-19 2 -9 13 11 18 1 37 -73 11 -47 18 -90 15 -96 -4 -6 -2 -8 3 -5 10 6 23
-35 24 -75 0 -10 4 -18 8 -18 4 0 7 -10 8 -22 1 -13 4 -34 9 -48 4 -14 7 -39
8 -57 1 -17 4 -29 9 -26 7 4 8 -3 10 -44 1 -10 5 -20 8 -23 4 -3 10 -24 12
-46 3 -23 9 -50 15 -60 5 -11 9 -36 7 -57 -1 -24 1 -33 6 -25 6 9 9 6 9 -10 0
-13 5 -32 10 -42 7 -13 7 -21 0 -25 -7 -4 -7 -11 -2 -18 15 -19 36 -113 37
-164 0 -17 3 -29 8 -26 6 4 9 -14 11 -72 0 -11 3 -22 7 -25 4 -3 9 -28 11 -55
2 -28 6 -52 10 -55 4 -3 9 -28 11 -56 2 -28 7 -56 12 -64 6 -9 4 -11 -6 -5
-11 7 -12 6 -2 -6 7 -9 15 -37 18 -63 3 -27 10 -68 14 -93 5 -25 8 -53 6 -62
-1 -9 1 -21 6 -27 5 -6 10 -38 11 -72 2 -34 6 -62 9 -62 3 0 5 -22 5 -49 -1
-27 3 -47 7 -44 4 2 6 -7 3 -20 -2 -14 -2 -28 2 -31 10 -11 9 -46 -2 -46 -8 0
-7 -3 0 -8 7 -4 15 -41 18 -82 4 -41 9 -84 11 -95 3 -11 7 -57 9 -102 3 -46 8
-88 12 -94 5 -8 3 -9 -7 -4 -11 7 -12 6 -3 -6 6 -8 10 -44 10 -81 -1 -38 1
-68 4 -68 5 0 11 -110 14 -255 1 -70 -2 -89 -12 -87 -8 1 -11 -2 -7 -8 3 -6
11 -8 16 -5 5 4 9 -19 10 -52 0 -32 1 -82 2 -111 1 -28 -1 -52 -5 -52 -4 0 -5
-7 -1 -16 13 -34 8 -129 -7 -142 -13 -10 -12 -11 4 -5 14 5 17 3 11 -7 -4 -7
-7 -31 -7 -53 1 -22 -4 -47 -11 -55 -9 -13 -9 -14 1 -8 8 5 12 -1 12 -18 0
-14 -6 -26 -12 -26 -9 0 -9 -3 -2 -8 6 -4 10 -20 10 -37 0 -16 -4 -33 -10 -37
-8 -6 -8 -8 0 -8 12 0 12 -29 0 -48 -4 -7 -2 -12 4 -12 6 0 8 -5 4 -11 -4 -7
-9 -62 -11 -123 -2 -61 -8 -115 -13 -120 -5 -5 -5 -16 1 -28 5 -10 8 -22 5
-26 -2 -4 -7 -39 -11 -77 -3 -39 -8 -81 -10 -95 -8 -52 -18 -146 -17 -163 0
-10 -4 -15 -10 -11 -6 4 -6 -2 1 -15 11 -20 8 -26 -13 -22 -5 1 -4 -4 3 -12
13 -16 11 -38 -4 -49 -6 -5 -5 -8 3 -8 8 0 10 -5 5 -12 -4 -7 -8 -24 -9 -38
-4 -55 -13 -92 -26 -107 -9 -12 -9 -15 -1 -9 10 5 11 -4 7 -36 -4 -24 -9 -45
-13 -48 -3 -3 -7 -16 -7 -30 -2 -37 -15 -113 -21 -123 -3 -4 -7 -25 -9 -45 -3
-20 -14 -75 -25 -122 -11 -47 -21 -94 -23 -105 -2 -11 -5 -22 -6 -25 -4 -9 -7
-24 -8 -49 -2 -21 -4 -22 -19 -10 -15 11 -16 11 -5 -1 14 -17 16 -54 2 -45 -6
3 -7 -1 -4 -10 6 -14 -11 -96 -25 -120 -3 -5 -6 -17 -6 -25 0 -8 -6 -14 -14
-12 -12 3 -12 0 -1 -12 10 -13 10 -19 0 -31 -7 -8 -10 -15 -6 -15 3 0 1 -12
-5 -27 -6 -16 -13 -39 -16 -53 -2 -14 -8 -27 -14 -28 -5 -2 -7 -8 -3 -13 3 -5
2 -15 -3 -21 -4 -7 -8 -20 -9 -28 0 -8 -6 -28 -12 -43 -7 -16 -12 -32 -12 -37
0 -5 -5 -21 -12 -37 -6 -15 -12 -34 -14 -40 -6 -31 -39 -109 -48 -115 -6 -4
-8 -8 -3 -8 4 0 1 -16 -7 -35 -9 -20 -15 -38 -16 -40 -1 -17 -7 -32 -46 -122
-13 -29 -20 -53 -17 -53 4 0 -2 -7 -13 -16 -10 -8 -13 -13 -7 -9 9 4 11 1 7
-10 -4 -9 -13 -14 -22 -10 -11 4 -12 2 -4 -7 7 -9 2 -31 -19 -78 -17 -36 -34
-67 -40 -68 -5 -2 -7 -7 -4 -12 9 -14 -25 -81 -37 -74 -7 4 -8 3 -4 -4 9 -15
-44 -133 -57 -125 -6 3 -7 1 -3 -5 8 -13 -38 -105 -48 -95 -4 4 -4 -1 0 -11 5
-13 4 -17 -4 -12 -8 5 -10 2 -6 -8 3 -9 1 -16 -5 -16 -6 0 -10 -6 -9 -12 2 -7
-2 -12 -9 -11 -7 2 -10 -3 -7 -11 3 -8 1 -17 -5 -21 -6 -3 -11 -15 -11 -26 0
-16 -5 -19 -22 -14 -16 4 -19 3 -10 -3 11 -7 6 -23 -24 -78 -41 -75 -103 -176
-114 -184 -3 -3 -12 -20 -19 -37 -8 -18 -17 -33 -20 -33 -4 0 -15 -16 -24 -35
-9 -19 -22 -35 -27 -35 -6 0 -9 -4 -6 -9 4 -5 3 -11 -1 -13 -5 -1 -16 -16 -25
-33 -10 -16 -24 -29 -33 -29 -12 2 -13 -1 -5 -11 8 -10 5 -17 -12 -29 -13 -9
-21 -18 -18 -21 3 -2 -3 -14 -12 -25 -10 -11 -18 -23 -18 -26 0 -12 -28 -33
-36 -26 -5 4 -6 3 -2 -2 10 -13 -11 -48 -24 -40 -7 4 -8 3 -4 -4 4 -7 2 -17
-4 -24 -47 -55 -150 -192 -150 -200 0 -5 -4 -6 -10 -3 -5 3 -10 1 -10 -4 0
-14 -43 -57 -53 -53 -5 1 -6 -2 -3 -6 7 -12 -33 -58 -46 -54 -5 1 -7 -2 -3 -8
3 -5 -7 -23 -22 -38 -15 -16 -57 -60 -92 -98 -36 -38 -69 -68 -74 -66 -4 1 -6
-1 -3 -6 7 -12 -48 -64 -58 -55 -4 5 -6 3 -4 -3 2 -6 -39 -53 -89 -103 -51
-51 -93 -90 -93 -88 0 3 -17 -11 -37 -32 -62 -60 -170 -151 -181 -151 -5 0
-13 -7 -16 -16 -3 -9 -13 -14 -21 -11 -10 4 -12 1 -8 -11 3 -9 3 -14 -1 -10
-5 4 -23 -7 -41 -24 -18 -16 -37 -30 -42 -30 -4 0 -14 -9 -21 -19 -15 -21 -37
-26 -26 -6 4 7 3 9 -2 4 -5 -5 -9 -14 -9 -20 0 -7 -8 -11 -18 -11 -9 1 -15 -2
-12 -6 6 -9 -47 -50 -64 -50 -6 0 -11 -4 -11 -9 0 -15 -69 -53 -81 -45 -7 4
-9 3 -5 -4 6 -10 -101 -79 -116 -74 -5 1 -8 -2 -8 -7 0 -11 -70 -54 -87 -54
-7 0 -13 -5 -13 -10 0 -5 -7 -6 -16 -3 -8 3 -13 2 -9 -3 5 -9 -103 -67 -117
-63 -5 1 -8 -2 -8 -7 0 -7 -51 -33 -70 -37 -3 0 -31 -13 -63 -28 -32 -15 -67
-28 -78 -29 -10 -1 -19 -4 -19 -8 0 -4 -7 -10 -16 -13 -10 -4 -13 -2 -8 7 4 6
-1 5 -12 -4 -10 -8 -39 -22 -64 -29 -25 -8 -55 -20 -67 -28 -13 -8 -23 -11
-23 -8 0 4 -8 2 -18 -3 -13 -7 -23 -6 -32 2 -10 9 -11 9 -6 0 7 -13 -4 -22
-34 -29 -36 -8 -54 -13 -97 -28 -22 -9 -53 -17 -68 -20 -15 -3 -30 -8 -33 -10
-3 -3 -11 -1 -19 6 -11 9 -13 8 -11 -1 2 -8 -4 -15 -12 -17 -8 -1 -30 -7 -47
-13 -18 -5 -33 -7 -33 -3 0 4 -4 1 -8 -5 -5 -7 -21 -15 -38 -17 -16 -2 -67
-13 -113 -25 -63 -15 -88 -18 -98 -9 -11 8 -12 7 -7 -6 5 -12 0 -16 -17 -17
-30 -1 -65 -6 -104 -13 -16 -3 -46 -9 -65 -13 -19 -3 -41 -7 -47 -9 -7 -1 -13
3 -13 9 0 9 -2 9 -8 1 -4 -7 -36 -15 -71 -18 -35 -4 -67 -9 -72 -11 -4 -3 -11
0 -15 6 -5 8 -9 8 -14 -1 -5 -9 -76 -13 -259 -15 -193 -3 -250 -1 -244 8 4 8
1 8 -9 -1 -10 -8 -18 -9 -22 -3 -4 6 -16 7 -27 2 -12 -4 -44 -4 -72 0 -29 3
-55 5 -59 2 -5 -2 -8 -1 -8 4 0 4 -19 8 -42 9 -102 3 -109 4 -102 17 6 9 4 9
-7 1 -15 -11 -13 -11 -84 0 -27 4 -56 13 -64 19 -12 9 -13 9 -7 0 8 -14 -6
-18 -18 -6 -8 8 -13 9 -64 11 -24 2 -31 6 -26 15 6 9 5 9 -8 0 -8 -7 -17 -10
-20 -8 -3 3 -16 8 -29 10 -100 18 -149 29 -149 34 0 3 -12 7 -27 7 -37 2 -80
11 -95 21 -7 4 -22 6 -32 4 -15 -2 -17 1 -12 16 6 14 5 16 -5 6 -18 -18 -29
-16 -30 5 0 10 -3 12 -6 5 -6 -16 -33 -17 -33 -2 0 5 -5 7 -11 4 -6 -4 -17 1
-25 11 -9 11 -13 13 -9 7 4 -8 0 -13 -9 -13 -9 0 -16 5 -16 11 0 5 -4 7 -10 4
-5 -3 -20 0 -32 6 -13 7 -30 13 -38 14 -8 1 -23 2 -33 3 -11 1 -15 7 -11 14 4
6 3 8 -4 4 -6 -3 -22 -2 -36 4 -15 5 -37 12 -49 14 -39 9 -97 32 -92 38 3 2
-5 4 -18 3 -12 -1 -28 5 -35 14 -8 10 -11 10 -6 2 5 -10 3 -12 -7 -5 -8 5 -17
9 -21 10 -5 1 -10 3 -13 4 -6 3 -12 5 -42 15 -13 4 -23 12 -23 18 0 6 -3 8 -6
4 -8 -7 -107 31 -115 45 -3 5 -9 9 -13 8 -15 -4 -66 12 -66 21 0 5 -8 9 -18 9
-21 0 -114 45 -107 51 2 3 -8 6 -22 7 -15 1 -30 7 -34 13 -3 6 -9 10 -13 10
-12 -2 -81 30 -99 47 -11 9 -21 16 -23 15 -11 -7 -24 -2 -19 7 4 6 -1 7 -11 3
-14 -5 -16 -3 -10 13 6 15 4 16 -5 7 -11 -11 -42 -2 -59 18 -5 5 -38 21 -50
23 -3 1 -12 6 -20 11 -13 9 -34 20 -132 72 -15 8 -30 19 -33 24 -4 5 -11 7
-16 4 -5 -4 -9 -1 -9 4 0 6 -4 11 -10 11 -9 0 -110 58 -120 69 -3 4 -21 14
-40 25 -19 10 -41 26 -47 34 -7 9 -13 12 -13 8 0 -4 -13 1 -29 10 -17 10 -27
22 -24 27 3 6 1 7 -5 3 -6 -3 -17 0 -25 8 -8 8 -17 12 -21 9 -3 -4 -6 -1 -6 5
0 7 -5 12 -10 12 -17 0 -115 72 -112 82 1 5 -6 8 -15 6 -10 -2 -17 2 -16 9 2
7 -4 10 -12 7 -8 -4 -17 1 -21 10 -3 9 -9 14 -13 11 -4 -2 -19 7 -34 21 -14
13 -31 24 -37 24 -5 0 -10 5 -10 10 0 6 -7 10 -15 10 -8 0 -15 4 -15 8 0 4
-14 16 -30 26 -17 9 -27 22 -24 28 4 7 2 8 -5 4 -14 -9 -43 12 -35 25 3 5 2 9
-3 8 -18 -3 -30 2 -49 19 -10 9 -32 25 -47 35 -15 10 -25 22 -22 27 3 6 0 8
-7 5 -7 -3 -26 7 -43 23 -16 15 -50 43 -75 62 -62 48 -70 56 -62 65 4 5 2 5
-4 2 -14 -8 -56 21 -48 34 3 5 0 8 -8 7 -7 -2 -12 3 -10 10 1 8 -2 11 -8 7 -9
-5 -113 73 -132 100 -4 5 -9 7 -12 4 -5 -5 19 -33 197 -223 51 -54 91 -103 89
-108 -1 -5 1 -7 6 -4 5 3 41 -28 80 -68 39 -41 73 -71 76 -68 4 3 6 0 6 -7 0
-13 24 -41 34 -41 11 0 46 -40 46 -52 0 -6 3 -9 6 -5 8 8 44 -25 38 -35 -3 -4
2 -8 11 -8 10 0 13 -5 9 -13 -4 -6 -4 -9 1 -5 8 8 66 -36 65 -48 -1 -4 9 -12
22 -19 13 -6 22 -17 20 -24 -1 -7 1 -10 6 -7 10 6 128 -94 124 -106 -1 -4 1
-7 5 -6 14 5 83 -54 76 -65 -4 -6 0 -8 10 -4 17 7 41 -15 29 -28 -4 -5 -2 -5
4 -2 7 4 26 -7 44 -23 18 -17 34 -30 36 -30 13 0 98 -75 96 -84 -2 -6 0 -8 4
-4 8 8 63 -27 114 -74 10 -9 22 -13 26 -10 4 4 4 -1 1 -11 -4 -11 -3 -16 4
-12 13 9 61 -23 54 -35 -4 -6 1 -7 11 -3 13 5 15 3 9 -7 -5 -9 -4 -11 3 -6 11
7 22 1 63 -36 10 -10 26 -18 34 -18 8 0 15 -7 15 -15 0 -8 3 -14 8 -13 4 1 22
-6 40 -16 29 -15 32 -19 20 -34 -12 -16 -11 -16 6 -2 16 13 20 12 33 -5 7 -11
16 -19 18 -17 11 6 23 1 45 -20 14 -13 27 -23 30 -23 3 0 4 -4 2 -8 -1 -5 2
-6 8 -2 5 3 10 2 10 -4 0 -6 6 -8 13 -5 7 2 22 -3 32 -13 11 -10 37 -26 58
-36 21 -9 36 -21 33 -26 -4 -5 2 -7 12 -5 9 3 28 -5 42 -18 13 -13 27 -22 30
-22 3 1 4 -2 2 -8 -1 -5 2 -7 7 -4 8 5 257 -117 271 -133 3 -3 12 -7 20 -9 8
-2 16 -7 18 -12 2 -5 10 -6 18 -3 7 3 17 -2 20 -11 3 -9 10 -14 14 -11 5 3 26
-4 46 -16 21 -11 46 -22 56 -24 10 -2 40 -15 67 -29 27 -13 52 -22 55 -19 3 4
6 1 6 -5 0 -7 3 -11 8 -10 15 5 71 -25 65 -35 -3 -6 -1 -7 6 -3 12 8 164 -42
169 -56 2 -5 7 -6 12 -3 5 3 21 0 37 -6 33 -14 35 -15 93 -31 25 -7 47 -15 50
-18 3 -3 16 -7 30 -9 14 -1 28 -7 31 -13 3 -5 9 -9 13 -7 12 4 116 -22 116
-29 0 -4 13 -7 29 -8 16 -1 37 -5 47 -9 11 -4 28 -10 39 -12 11 -1 61 -12 110
-23 50 -11 102 -22 118 -24 15 -3 37 -8 48 -11 12 -4 38 -9 58 -10 20 -2 36
-4 36 -5 0 -2 35 -8 65 -12 14 -2 28 -7 32 -13 5 -6 8 -5 8 3 0 7 4 10 10 7 5
-3 31 -8 57 -11 26 -2 66 -7 88 -10 52 -7 105 -11 185 -14 36 -2 70 -7 77 -12
6 -5 13 -5 16 -1 4 7 80 9 97 3 7 -3 215 0 275 4 28 1 56 -2 64 -8 11 -8 13
-8 7 2 -5 9 7 12 51 13 32 0 66 2 75 4 10 2 23 -4 29 -13 9 -15 10 -15 5 1 -5
14 -1 18 17 17 12 -1 24 -1 27 0 16 6 51 10 97 12 29 2 53 8 53 13 0 6 5 3 10
-5 5 -8 10 -10 10 -4 0 6 6 11 13 11 34 2 116 15 142 23 17 5 46 11 65 13 20
2 40 6 45 9 6 3 35 11 65 19 69 17 62 15 80 21 8 3 49 16 90 29 41 12 80 26
87 31 7 6 17 7 23 3 5 -3 10 -1 10 5 0 6 5 8 10 5 6 -3 10 -2 10 4 0 6 7 8 15
5 8 -4 15 -1 15 5 0 6 9 11 19 11 11 0 23 5 26 10 5 8 12 7 23 -2 12 -10 14
-10 8 0 -6 10 20 28 54 37 3 0 19 8 36 17 24 13 34 14 43 5 10 -9 11 -8 6 6
-5 11 -2 17 6 17 8 0 27 7 43 15 15 8 32 13 36 10 5 -3 10 -1 12 4 1 4 27 21
56 35 45 23 56 25 70 14 15 -11 15 -11 5 2 -10 13 0 22 65 55 42 22 80 39 84
37 4 -1 8 2 8 8 0 13 58 42 71 35 5 -4 8 -1 7 7 -2 7 5 12 14 12 10 -1 15 3
11 9 -4 6 0 8 11 4 10 -4 15 -3 11 3 -7 11 35 31 48 23 4 -2 6 -1 5 4 -2 4 1
9 6 10 5 1 12 5 15 10 8 11 98 73 106 73 3 0 13 6 20 13 34 30 43 35 49 30 3
-4 6 -1 6 6 0 8 6 11 16 7 8 -3 13 -2 10 3 -3 4 32 35 77 67 45 32 84 61 87
64 19 22 78 59 85 52 5 -4 5 -1 1 6 -4 6 -4 12 1 12 4 0 24 15 44 33 58 51 89
77 95 79 4 2 26 21 49 43 140 134 180 167 159 133 -4 -7 -3 -8 5 -4 6 4 9 11
7 15 -9 13 101 114 115 106 8 -6 10 -4 4 4 -8 13 33 58 48 53 5 -1 6 2 3 6 -7
12 28 44 38 35 4 -5 7 -3 5 2 -3 15 12 45 21 40 4 -3 11 2 14 11 3 8 10 13 15
10 5 -3 8 0 7 7 0 6 3 13 8 14 5 1 14 12 21 25 6 13 17 22 23 20 7 -1 11 2 10
7 -2 4 20 35 48 67 29 32 65 74 80 93 16 18 38 44 49 57 11 12 31 37 45 55 14
18 35 43 47 56 12 13 19 23 15 23 -4 0 -2 4 4 8 6 4 44 52 84 107 40 55 79
105 87 112 8 6 15 15 16 20 1 4 6 7 10 5 5 -1 6 2 3 7 -4 5 1 16 9 24 8 9 15
18 15 22 0 7 80 127 90 135 4 3 10 13 13 24 4 10 13 16 22 12 8 -3 17 -1 20 5
4 5 2 8 -3 7 -6 -2 -12 -1 -13 2 -4 4 83 150 130 220 10 14 20 33 24 43 4 10
11 15 17 12 6 -3 7 1 4 9 -3 9 -2 16 3 16 5 0 15 16 22 35 7 19 17 33 22 30 5
-4 6 2 2 11 -5 14 -3 16 12 11 13 -6 15 -4 8 5 -12 15 29 93 42 81 4 -5 5 -3
2 3 -3 6 1 24 10 40 8 16 39 75 67 132 29 56 56 99 61 95 4 -4 5 -3 1 4 -7 12
22 83 39 95 7 5 7 8 0 8 -5 0 -1 7 9 15 11 8 15 15 8 15 -7 0 -5 12 7 33 10
17 27 53 36 80 11 28 24 47 34 48 9 0 11 3 4 5 -12 5 -3 43 24 94 7 14 13 33
13 42 0 9 5 18 11 20 9 3 15 22 18 51 1 5 6 5 13 1 7 -4 8 -3 4 5 -9 14 22
101 36 101 5 0 7 4 3 10 -7 12 5 61 14 56 4 -3 8 7 9 21 1 13 5 30 9 36 4 7 8
17 9 23 2 11 47 147 62 184 3 8 6 18 7 23 2 4 3 8 5 10 1 2 6 20 13 50 1 6 6
18 10 25 5 6 6 12 2 12 -3 0 1 16 9 35 9 20 15 38 15 40 0 22 15 75 21 75 4 0
8 6 7 13 -1 29 4 48 11 44 6 -4 10 20 13 86 0 9 4 17 8 17 4 0 8 6 8 13 1 6 4
28 6 47 3 19 6 39 6 43 1 5 4 6 9 4 4 -3 8 16 10 41 1 26 7 51 11 55 5 5 7 16
4 23 -3 8 -1 14 5 14 6 0 8 9 5 20 -3 11 -1 20 4 20 6 0 8 11 5 25 -4 21 -1
24 14 19 18 -5 18 -5 1 6 -10 6 -14 16 -10 23 8 13 9 16 18 72 3 22 8 47 11
55 3 8 8 31 10 50 3 19 10 38 17 42 9 6 9 8 -1 8 -15 0 -6 40 12 52 8 5 7 8
-2 8 -15 0 -5 51 12 62 8 5 8 8 0 8 -6 0 -9 13 -6 30 3 19 8 27 16 23 6 -4 5
1 -3 10 -13 16 -8 22 13 18 5 -1 3 5 -4 14 -10 12 -10 19 -2 27 15 15 15 31 0
22 -6 -4 -9 -3 -6 2 8 12 20 82 21 117 0 15 3 27 6 27 3 0 7 19 8 43 2 51 9
133 18 207 10 82 13 111 14 157 1 32 4 41 15 37 8 -3 17 -1 20 4 3 5 -2 9 -12
8 -12 -1 -16 6 -15 24 1 14 3 49 4 77 1 29 5 50 9 48 9 -5 8 14 -1 30 -7 13
-3 65 7 89 5 15 4 17 -6 11 -9 -6 -11 -4 -4 6 7 13 15 108 13 169 -4 148 -2
320 4 320 5 0 5 5 1 11 -4 6 -8 97 -10 203 -1 105 -4 212 -6 239 -2 28 0 47 7
47 7 0 7 3 0 8 -13 8 -13 22 -1 41 6 10 5 12 -2 7 -9 -5 -12 12 -13 61 -2 96
-4 137 -10 148 -3 6 -5 40 -4 77 0 38 -2 68 -5 68 -3 0 -6 19 -7 43 -1 23 -4
58 -7 77 -2 19 -6 58 -8 85 -2 28 -7 53 -13 57 -6 5 -5 8 3 8 7 0 11 4 7 9 -7
13 -18 86 -19 133 -1 21 -5 38 -10 38 -4 0 0 12 10 28 15 23 15 25 1 13 -15
-12 -17 -10 -18 15 -2 55 -6 84 -12 91 -4 3 -1 13 6 21 9 13 9 14 0 8 -9 -5
-13 2 -14 23 -3 60 -4 69 -11 77 -4 4 -2 14 5 22 6 9 7 13 1 9 -10 -6 -38 143
-38 201 0 12 -3 22 -6 22 -4 0 -7 16 -8 35 -1 20 -4 40 -7 44 -3 5 -7 27 -10
50 -3 23 -12 69 -20 103 -8 34 -12 65 -9 69 2 4 1 10 -4 13 -4 2 -9 17 -10 33
-3 29 -9 68 -12 68 -2 0 -5 16 -13 57 -3 15 -8 32 -12 38 -3 5 0 10 7 10 8 0
9 3 2 8 -12 8 -38 113 -39 154 0 14 -2 24 -4 22 -3 -2 -15 37 -27 88 -12 51
-21 95 -19 96 2 2 -5 24 -15 48 -14 31 -16 44 -7 44 8 0 7 3 -2 9 -8 5 -11 16
-8 24 3 9 1 17 -4 19 -6 2 -11 18 -11 36 -1 17 -5 32 -10 32 -4 0 -8 11 -8 24
0 14 -4 28 -10 31 -5 3 -10 11 -10 17 0 6 7 5 18 -3 14 -11 13 -9 -2 9 -11 12
-16 25 -13 28 3 4 -1 13 -9 21 -12 12 -12 18 -3 30 10 11 10 13 -1 11 -8 -2
-15 6 -15 17 -1 11 -5 28 -10 39 -4 10 -8 31 -9 47 -1 16 -4 29 -7 29 -6 0
-35 102 -31 113 1 4 -3 7 -8 7 -5 0 -10 14 -10 30 0 17 -5 30 -12 30 -6 0 -9
3 -5 6 3 3 -1 24 -9 46 -17 49 -18 61 -2 52 7 -4 8 -3 4 5 -4 6 -12 9 -17 6
-5 -4 -10 1 -10 9 -2 20 -3 25 -17 59 -7 16 -12 35 -12 43 0 8 -4 12 -10 9 -5
-3 -10 1 -10 9 0 15 -15 36 -67 94 -13 13 -20 29 -16 35 3 5 1 7 -5 3 -6 -3
-18 1 -26 10 -9 8 -16 12 -16 7 0 -4 -5 0 -11 9 -9 16 -123 77 -159 86 -8 2
-42 6 -75 8 -33 2 -70 6 -82 8 -13 2 -24 2 -26 0z"/>
<path d="M13475 14089 c-4 -6 -5 -12 -2 -15 2 -3 7 2 10 11 7 17 1 20 -8 4z"/>
<path d="M16909 13986 c-2 -2 -24 -7 -49 -10 -25 -3 -58 -8 -75 -12 -16 -4
-46 -7 -67 -8 -20 -1 -34 -4 -32 -7 2 -4 -3 -9 -11 -13 -8 -3 -15 -1 -15 5 0
6 -7 6 -17 1 -33 -17 -85 -23 -78 -9 4 6 0 4 -8 -6 -10 -12 -31 -18 -65 -20
-27 -1 -48 -6 -45 -11 3 -5 -8 -7 -25 -4 -19 3 -29 1 -25 -6 4 -5 -1 -7 -10
-3 -10 3 -17 3 -17 -2 0 -4 -6 -8 -12 -9 -27 -2 -64 -10 -80 -16 -9 -4 -22 -8
-30 -10 -7 -1 -19 -5 -25 -9 -7 -5 -13 -6 -13 -3 0 2 -30 -4 -66 -14 -37 -11
-71 -17 -75 -14 -5 3 -9 1 -9 -4 0 -9 -8 -11 -54 -15 -13 -1 -23 -4 -21 -7 2
-3 -12 -10 -30 -16 -20 -6 -32 -7 -28 -1 3 5 -6 1 -21 -8 -14 -10 -26 -14 -26
-10 0 4 -6 3 -13 -3 -7 -6 -24 -13 -37 -15 -14 -3 -45 -12 -69 -20 -25 -9 -48
-14 -53 -11 -4 3 -8 0 -8 -7 0 -7 -3 -9 -7 -6 -3 4 -12 2 -18 -3 -7 -6 -27
-12 -44 -13 -17 -1 -31 -6 -31 -11 0 -4 -9 -6 -21 -3 -12 3 -18 3 -15 0 8 -8
-42 -33 -71 -35 -12 -1 -23 -6 -23 -10 0 -4 -6 -8 -14 -8 -14 0 -270 -97 -333
-126 -17 -7 -34 -14 -37 -14 -3 0 -29 -11 -56 -24 -28 -13 -47 -19 -43 -13 5
8 2 8 -9 0 -8 -7 -19 -9 -23 -5 -5 4 -5 2 -1 -5 4 -7 -3 -14 -16 -19 -13 -4
-46 -17 -75 -30 -78 -36 -107 -47 -115 -46 -5 1 -8 -2 -8 -6 0 -8 -74 -39 -76
-31 0 2 -8 -3 -17 -13 -9 -9 -38 -24 -64 -34 -27 -10 -54 -24 -61 -31 -17 -16
-34 -16 -52 0 -12 10 -12 9 -1 -5 12 -16 9 -22 -11 -19 -5 0 -8 -4 -8 -10 0
-5 -4 -7 -10 -4 -5 3 -10 1 -10 -5 0 -6 -4 -8 -10 -5 -5 3 -10 1 -10 -5 0 -7
-7 -9 -17 -6 -10 4 -14 4 -10 0 9 -10 -83 -55 -97 -47 -6 3 -8 2 -4 -2 5 -5
-4 -16 -20 -25 -20 -13 -31 -15 -41 -6 -11 8 -13 8 -8 0 9 -15 -19 -38 -34
-28 -8 4 -9 3 -5 -4 4 -7 1 -12 -8 -12 -9 0 -16 -4 -16 -9 0 -9 -48 -26 -63
-22 -5 1 -6 -2 -3 -7 5 -8 -96 -65 -110 -62 -3 1 -12 -6 -18 -16 -8 -10 -20
-15 -29 -11 -9 3 -16 2 -14 -4 1 -6 -23 -24 -53 -41 -30 -17 -58 -36 -62 -42
-4 -6 -8 -7 -8 -3 0 5 -12 -1 -26 -12 -15 -12 -33 -21 -40 -21 -8 0 -14 -4
-14 -8 0 -5 -12 -15 -27 -22 -16 -8 -36 -20 -45 -28 -9 -8 -22 -11 -29 -6 -7
4 -10 3 -6 -3 3 -5 -27 -29 -66 -53 -40 -24 -80 -50 -89 -58 -9 -8 -22 -11
-29 -6 -8 4 -10 3 -5 -4 7 -11 -6 -17 -27 -13 -5 1 -6 -3 -2 -9 3 -5 -7 -16
-22 -22 -15 -7 -33 -18 -40 -24 -6 -6 -51 -38 -100 -70 -48 -32 -90 -60 -93
-63 -21 -24 -121 -81 -131 -75 -8 5 -9 3 -5 -5 9 -15 -23 -43 -41 -36 -7 2
-12 -1 -10 -7 1 -7 -10 -18 -25 -25 -16 -8 -28 -18 -28 -22 0 -5 -13 -14 -30
-21 -16 -7 -28 -16 -25 -20 3 -4 -9 -13 -25 -20 -17 -7 -30 -17 -30 -23 0 -6
-3 -7 -7 -4 -3 4 -16 -5 -29 -18 -13 -14 -25 -25 -28 -25 -6 0 -37 -24 -61
-47 -8 -7 -16 -13 -19 -13 -3 0 -14 -8 -24 -17 -28 -27 -63 -48 -73 -46 -5 2
-8 -1 -6 -6 1 -5 -16 -23 -38 -40 -22 -17 -56 -45 -75 -60 -19 -16 -37 -29
-40 -28 -3 1 -19 -12 -36 -28 -17 -17 -52 -48 -78 -70 -27 -22 -57 -48 -68
-57 -11 -9 -27 -14 -36 -11 -13 4 -14 3 -4 -5 10 -7 8 -12 -10 -24 -13 -9 -38
-30 -56 -47 -18 -18 -37 -29 -43 -26 -5 4 -8 1 -7 -7 2 -7 -3 -12 -9 -11 -7 2
-12 -1 -10 -6 1 -5 -9 -18 -23 -30 -31 -26 -84 -72 -132 -114 -88 -79 -194
-174 -218 -197 -56 -52 -85 -75 -95 -72 -5 2 -7 0 -3 -3 4 -4 -11 -26 -33 -48
-33 -32 -43 -37 -51 -26 -7 10 -8 8 -3 -8 4 -16 1 -23 -14 -28 -11 -3 -23 -15
-26 -25 -3 -11 -9 -19 -13 -18 -4 2 -26 -17 -50 -40 -24 -25 -47 -40 -54 -36
-6 4 -8 3 -4 -4 4 -6 -70 -88 -173 -191 -99 -100 -181 -178 -184 -174 -2 5 -3
3 -1 -4 4 -15 -30 -45 -41 -36 -4 5 -5 3 -1 -4 4 -7 -21 -41 -64 -84 -38 -40
-70 -74 -70 -77 0 -2 -24 -29 -52 -59 -62 -66 -89 -96 -142 -157 -21 -25 -43
-43 -49 -39 -6 3 -7 1 -3 -5 8 -14 -34 -63 -47 -55 -6 3 -7 1 -3 -5 3 -6 -7
-25 -24 -42 -16 -17 -30 -34 -30 -39 0 -5 -15 -21 -33 -37 -18 -16 -36 -37
-40 -47 -4 -10 -12 -15 -17 -12 -6 4 -9 3 -8 -2 2 -4 -12 -27 -31 -50 -22 -27
-39 -40 -50 -36 -13 4 -13 3 -2 -5 12 -9 12 -12 -1 -26 -9 -8 -19 -12 -23 -8
-5 4 -5 2 -2 -4 3 -6 -9 -27 -28 -47 -19 -21 -33 -37 -30 -37 3 0 -5 -10 -18
-22 -12 -13 -25 -22 -28 -21 -4 1 -6 -5 -5 -15 0 -9 -5 -16 -12 -14 -8 1 -11
-1 -8 -6 3 -4 -7 -21 -21 -38 -14 -16 -36 -44 -50 -61 -14 -18 -30 -30 -36
-26 -6 3 -7 1 -3 -5 4 -7 -3 -22 -14 -34 -12 -13 -46 -54 -75 -93 -29 -38 -63
-80 -75 -92 -11 -13 -18 -23 -15 -23 3 0 -10 -16 -29 -35 -20 -19 -33 -35 -29
-35 3 0 0 -7 -7 -15 -7 -8 -17 -12 -24 -8 -6 3 -8 3 -4 -2 9 -10 -10 -47 -21
-41 -4 3 -8 -1 -8 -8 0 -15 -54 -86 -66 -86 -5 0 -5 -4 -2 -10 3 -5 2 -10 -4
-10 -5 0 -13 -9 -16 -20 -3 -11 -13 -20 -21 -20 -8 0 -13 -4 -10 -9 8 -12 -29
-43 -39 -34 -4 5 -5 2 -1 -5 9 -16 -12 -44 -27 -35 -6 4 -7 1 -2 -7 4 -7 4
-15 -1 -19 -5 -3 -22 -24 -39 -46 -16 -22 -35 -46 -42 -53 -7 -7 -13 -18 -13
-23 0 -6 -4 -7 -10 -4 -5 3 -10 1 -10 -5 0 -21 -153 -211 -165 -206 -8 3 -11
-2 -8 -15 3 -10 0 -19 -6 -19 -6 0 -11 -6 -11 -14 0 -8 -3 -16 -7 -18 -5 -1
-26 -25 -48 -53 -21 -27 -42 -52 -46 -55 -3 -3 -11 -15 -18 -28 -7 -12 -16
-20 -21 -17 -6 4 -7 -1 -3 -11 4 -12 3 -15 -5 -10 -7 4 -12 1 -12 -7 0 -8 -7
-17 -15 -21 -8 -3 -14 -9 -13 -13 4 -12 -34 -53 -44 -47 -4 3 -6 -1 -3 -8 3
-7 -11 -30 -30 -51 -19 -21 -35 -42 -35 -48 0 -5 -7 -9 -17 -9 -9 0 -14 -3
-10 -6 5 -6 -77 -117 -122 -166 -20 -22 -26 -29 -89 -111 -29 -38 -52 -65 -52
-60 -1 4 -6 -2 -13 -13 -14 -25 -62 -85 -98 -122 -14 -15 -33 -39 -43 -54 -10
-15 -22 -25 -27 -22 -5 3 -8 0 -7 -8 2 -7 -3 -12 -10 -10 -8 1 -11 -2 -8 -6 7
-12 -33 -58 -46 -54 -5 1 -7 -2 -4 -6 8 -13 -29 -54 -39 -44 -4 4 -6 1 -3 -7
4 -14 -51 -77 -65 -73 -5 1 -6 -1 -3 -6 3 -4 -12 -27 -33 -50 -21 -23 -36 -43
-34 -46 3 -2 -5 -7 -16 -11 -12 -3 -21 -11 -21 -16 0 -5 -18 -28 -40 -51 -22
-24 -40 -46 -40 -50 0 -5 -7 -8 -17 -8 -9 0 -13 -3 -10 -7 4 -3 -5 -17 -19
-30 -14 -12 -22 -23 -17 -23 4 0 -4 -8 -17 -17 -14 -10 -29 -17 -33 -15 -5 1
-5 -3 -1 -9 4 -6 -13 -30 -41 -55 -25 -24 -45 -44 -42 -44 3 0 -11 -16 -30
-35 -19 -19 -39 -33 -43 -30 -5 3 -12 0 -16 -6 -4 -8 -3 -9 4 -5 37 22 -7 -26
-163 -181 -97 -95 -180 -171 -185 -168 -6 3 -7 -1 -4 -9 3 -9 2 -16 -3 -16 -5
0 -37 -27 -72 -60 -35 -33 -67 -57 -72 -54 -5 3 -6 -3 -2 -13 3 -10 3 -15 -1
-12 -4 4 -22 -8 -40 -27 -18 -19 -38 -34 -45 -34 -7 0 -9 -4 -6 -10 3 -6 2
-10 -3 -10 -5 0 -31 -20 -58 -44 -26 -25 -52 -42 -56 -40 -4 3 -8 -3 -8 -12 0
-10 -3 -15 -6 -12 -3 3 -22 -9 -42 -27 -20 -19 -39 -32 -43 -29 -4 2 -9 -2
-12 -10 -9 -22 -196 -148 -209 -140 -6 4 -8 3 -5 -3 4 -6 -11 -22 -33 -37 -22
-14 -40 -24 -40 -21 0 3 -8 -2 -17 -11 -35 -32 -188 -114 -203 -109 -8 4 -11
3 -7 -1 10 -11 -71 -57 -89 -50 -9 3 -12 1 -9 -4 6 -10 -44 -34 -53 -25 -3 2
-10 -1 -16 -9 -6 -7 -54 -30 -106 -51 -52 -20 -104 -41 -115 -45 -21 -9 -97
-34 -105 -35 -3 0 -11 -4 -17 -8 -8 -5 -13 -3 -13 5 0 9 -3 9 -10 -2 -5 -8
-13 -15 -17 -16 -4 0 -21 -3 -38 -7 -16 -4 -39 -9 -50 -12 -11 -2 -33 -8 -50
-13 -16 -5 -38 -8 -47 -6 -10 1 -18 -1 -18 -6 0 -7 -29 -12 -137 -25 -11 -2
-31 -6 -43 -10 -17 -6 -21 -4 -14 6 6 11 5 12 -7 3 -20 -17 -91 -25 -82 -10 4
7 1 7 -8 -1 -12 -10 -18 -10 -29 0 -10 9 -11 9 -6 0 5 -10 -6 -13 -41 -14
-179 -4 -213 -3 -213 6 0 5 -5 4 -11 -2 -14 -14 -51 -5 -42 11 5 8 3 8 -8 0
-19 -15 -71 -15 -62 0 4 7 1 6 -9 -1 -8 -7 -18 -10 -22 -6 -4 4 -21 8 -39 8
-54 1 -196 28 -192 36 3 4 -3 5 -13 2 -11 -2 -36 2 -56 11 -20 8 -34 11 -31 7
3 -5 -4 -7 -15 -4 -11 3 -17 10 -13 16 3 6 1 7 -5 3 -10 -6 -142 27 -167 42
-5 4 -17 7 -25 9 -8 1 -23 6 -35 12 -27 13 -58 24 -70 26 -5 0 -9 5 -8 10 1 6
-10 11 -24 12 -34 2 -74 24 -66 36 4 6 1 7 -6 2 -15 -9 -203 84 -195 96 3 5
-3 6 -12 2 -14 -5 -16 -3 -11 12 6 13 4 15 -5 8 -9 -7 -21 -5 -40 7 -16 9 -27
19 -25 21 1 2 0 3 -2 2 -9 -5 -41 19 -36 27 3 6 0 7 -8 5 -7 -3 -25 6 -40 19
-15 14 -30 26 -32 26 -3 0 -8 0 -12 0 -5 0 -23 14 -40 31 -18 16 -33 27 -33
24 0 -6 -18 7 -56 43 -14 12 -28 22 -32 22 -4 0 -26 17 -50 39 -23 21 -42 37
-42 35 0 -2 -9 4 -19 13 -11 9 -18 20 -15 25 3 5 2 7 -3 6 -12 -4 -54 28 -46
35 3 4 1 7 -5 7 -17 0 -172 151 -166 162 3 5 1 7 -4 6 -5 -2 -32 21 -59 50
-28 28 -49 52 -48 52 2 0 -16 20 -38 44 -23 24 -53 59 -67 77 -14 18 -33 41
-44 50 -10 10 -15 22 -11 28 3 7 2 10 -3 9 -12 -4 -44 32 -89 100 -19 28 -39
52 -44 52 -5 0 -9 6 -9 14 0 7 -13 31 -30 52 -16 22 -33 44 -37 49 -5 6 -15
24 -23 40 -16 33 -26 47 -51 73 -9 9 -20 27 -23 39 -4 13 -13 29 -19 36 -17
18 -47 69 -54 90 -3 9 -9 17 -14 17 -5 0 -9 4 -9 8 0 5 -27 56 -60 113 -33 57
-60 108 -60 112 0 5 -7 16 -16 24 -8 9 -13 24 -11 35 3 10 2 16 -3 13 -11 -7
-63 103 -54 116 4 7 3 9 -4 5 -9 -5 -29 32 -23 43 2 2 -2 7 -8 10 -16 10 -82
173 -76 188 2 8 1 12 -4 9 -11 -7 -23 22 -14 36 3 6 2 8 -4 5 -12 -7 -35 61
-26 77 3 6 2 8 -2 3 -10 -8 -67 132 -59 145 3 4 0 8 -5 8 -6 0 -10 3 -9 8 1 4
-4 20 -10 35 -7 16 -10 33 -6 38 3 5 0 9 -7 9 -7 0 -10 3 -6 6 3 4 -1 20 -9
36 -9 16 -13 36 -10 44 3 9 1 12 -4 9 -9 -5 -14 16 -13 52 1 7 -3 10 -8 7 -5
-3 -9 4 -9 16 0 12 -4 29 -9 38 -5 9 -11 31 -15 47 -3 17 -8 40 -11 51 -4 12
-2 25 4 28 6 4 11 12 11 19 0 6 -7 2 -15 -9 -11 -15 -15 -16 -15 -4 -1 8 -3
24 -6 35 -2 11 -5 29 -7 40 -1 11 -5 22 -9 25 -3 3 -8 19 -11 37 -3 17 -8 37
-13 44 -5 8 -3 10 5 4 9 -5 9 0 -1 16 -8 13 -14 31 -13 39 0 8 -4 18 -9 22 -6
4 -4 13 4 23 11 13 11 15 0 13 -7 -2 -14 6 -16 17 -12 72 -21 112 -28 123 -4
7 -2 12 6 12 9 0 9 3 2 8 -6 4 -12 14 -12 22 -1 8 -8 46 -16 85 -8 38 -12 73
-9 78 3 5 0 13 -8 17 -10 7 -10 12 2 26 9 11 9 15 2 10 -9 -5 -13 -1 -13 13 0
10 3 21 8 24 4 2 1 2 -7 0 -9 -2 -12 3 -8 17 3 11 1 20 -3 20 -5 0 -7 7 -6 16
1 9 -1 38 -5 65 -4 26 -11 80 -14 121 -4 40 -10 92 -15 116 -5 29 -4 42 4 42
8 0 8 2 0 8 -6 4 -12 27 -12 50 -1 24 -4 48 -8 53 -3 5 1 9 8 9 8 0 9 3 3 8
-5 4 -11 18 -12 32 -1 14 -3 43 -4 65 -2 23 1 46 5 53 4 7 3 12 -2 12 -8 0
-15 102 -13 208 1 63 1 44 -2 232 -1 95 2 158 8 162 6 5 6 8 -2 8 -8 0 -9 9
-4 28 5 15 14 26 20 24 7 -1 10 2 6 8 -3 6 -10 8 -15 5 -8 -5 -7 66 5 230 3
44 6 96 8 115 1 19 6 41 11 49 7 10 6 12 -4 6 -8 -5 -11 -4 -6 3 3 6 7 27 8
46 1 19 4 33 8 31 3 -2 4 12 2 31 -2 19 1 41 7 48 8 9 8 16 2 20 -5 4 -6 18
-2 34 4 15 6 33 4 40 -3 6 -1 12 4 12 5 0 7 14 5 31 -4 24 -2 30 8 24 10 -6
10 -3 2 10 -6 11 -6 29 -1 44 7 23 11 53 23 156 2 17 4 38 5 48 1 10 4 16 8
14 5 -3 8 16 9 41 1 42 27 187 34 187 1 0 3 9 5 20 2 11 6 31 9 45 3 14 8 43
11 65 7 45 43 192 52 215 3 8 8 24 9 35 3 17 8 36 19 78 2 4 4 9 5 12 4 9 7
25 9 46 0 11 5 17 11 14 5 -3 9 2 8 12 -3 26 13 103 21 103 4 0 7 8 7 18 1 13
61 208 69 219 0 1 26 -2 56 -7 29 -6 70 -12 89 -14 19 -2 35 -4 35 -5 0 -3 55
-11 97 -14 21 -1 38 -5 38 -8 0 -3 6 -6 13 -7 29 -4 62 -10 62 -12 0 -1 13 -4
30 -6 16 -3 35 -10 41 -15 8 -7 14 -6 17 3 4 11 6 10 6 0 1 -7 5 -11 9 -8 5 3
33 -2 63 -10 30 -9 64 -15 76 -15 12 0 25 -4 28 -9 4 -6 11 -8 16 -5 5 4 15 3
22 -2 6 -4 19 -8 27 -8 8 0 14 -6 12 -13 -2 -9 2 -11 14 -4 10 6 35 2 70 -9
30 -10 70 -21 89 -25 19 -3 33 -9 31 -13 -2 -3 14 -7 36 -8 23 0 43 -5 47 -10
3 -5 16 -8 28 -7 13 1 23 -2 23 -5 0 -4 10 -7 23 -8 12 -1 32 -4 44 -7 13 -3
31 -8 40 -11 60 -16 102 -26 133 -31 19 -3 40 -9 45 -12 10 -7 16 -8 36 -11 5
0 7 -7 3 -13 -5 -8 -1 -8 10 1 10 9 20 11 24 5 4 -5 21 -11 37 -13 17 -1 46
-10 65 -18 19 -8 50 -17 69 -19 19 -2 37 -7 40 -11 3 -4 15 -9 26 -11 11 -2
27 -6 35 -9 19 -8 27 -10 41 -12 5 0 7 -5 4 -11 -3 -6 1 -7 10 -4 8 4 23 0 32
-7 11 -10 14 -10 9 -2 -7 12 12 9 39 -6 6 -3 19 -7 29 -8 11 -2 25 -8 31 -13
6 -5 20 -11 31 -13 37 -7 79 -20 89 -27 6 -4 31 -13 57 -21 26 -7 44 -17 41
-23 -3 -5 -1 -6 5 -2 6 3 23 1 39 -6 15 -6 32 -10 38 -9 5 1 14 -4 20 -11 5
-7 15 -13 20 -13 29 0 104 -29 98 -38 -3 -5 -1 -7 5 -4 12 8 44 -2 38 -12 -2
-3 12 -7 32 -8 20 -1 38 -7 40 -12 2 -6 12 -11 23 -11 11 0 27 -4 37 -9 16 -8
32 -15 99 -42 17 -7 30 -16 28 -19 -2 -3 9 -6 23 -7 15 0 28 -6 30 -12 2 -6 8
-9 13 -5 5 3 21 -2 36 -10 16 -8 42 -20 60 -27 17 -7 29 -17 26 -23 -3 -5 -1
-6 4 -3 6 4 28 -1 49 -10 47 -20 44 -19 72 -28 12 -4 22 -11 22 -16 0 -5 3 -8
8 -7 13 4 121 -45 116 -54 -3 -4 1 -5 9 -2 8 3 18 0 22 -5 3 -6 11 -9 16 -6 5
4 9 1 9 -5 0 -6 5 -8 10 -5 6 3 10 1 10 -6 0 -7 3 -9 6 -6 10 9 46 -12 39 -23
-3 -6 0 -7 8 -4 14 5 156 -61 168 -79 3 -5 10 -8 15 -7 18 3 103 -43 97 -53
-3 -6 -1 -7 5 -3 14 8 272 -119 272 -134 0 -3 8 -6 17 -7 27 -2 124 -58 116
-67 -4 -4 1 -4 11 0 12 4 17 4 13 -2 -3 -6 4 -11 15 -11 12 -1 24 -6 27 -11 3
-5 21 -15 39 -23 17 -8 32 -18 32 -22 0 -5 4 -6 9 -2 5 3 16 -2 24 -10 9 -8
21 -15 27 -15 6 0 9 -4 6 -8 -3 -5 1 -9 8 -9 24 0 236 -125 229 -136 -3 -6 -1
-7 5 -3 14 8 74 -28 64 -39 -4 -5 -1 -5 6 0 9 4 25 -1 43 -14 15 -11 33 -21
38 -21 5 0 16 -6 23 -12 7 -7 25 -19 40 -27 15 -8 25 -18 22 -23 -3 -5 -2 -8
3 -7 31 5 44 -2 39 -23 -3 -13 -3 -17 0 -10 6 14 34 17 34 3 0 -5 8 -11 18
-14 17 -6 72 -37 82 -47 3 -3 19 -13 35 -22 17 -10 29 -22 27 -28 -1 -7 2 -9
7 -5 8 5 133 -65 151 -85 3 -3 17 -11 33 -19 15 -8 27 -18 27 -23 0 -5 5 -6
12 -2 7 5 9 2 5 -9 -4 -12 -2 -14 10 -10 9 3 21 0 27 -8 6 -8 28 -23 49 -32
20 -10 37 -21 37 -25 0 -4 14 -13 31 -19 17 -7 28 -17 24 -22 -3 -7 0 -8 9 -5
9 3 16 1 16 -5 0 -6 7 -11 15 -11 8 0 15 -4 15 -10 0 -5 7 -10 15 -10 8 0 15
-3 15 -8 0 -4 14 -13 31 -21 17 -7 41 -24 54 -37 12 -12 26 -20 29 -17 3 4 6
1 6 -5 0 -7 6 -12 13 -12 7 0 23 -9 35 -20 12 -11 24 -20 28 -20 3 0 23 -12
43 -27 20 -16 43 -32 52 -38 62 -39 106 -71 121 -87 9 -11 18 -18 20 -17 4 3
91 -51 98 -61 3 -3 22 -16 43 -29 20 -12 37 -27 37 -32 0 -5 3 -8 8 -7 12 5
52 -28 44 -36 -4 -4 -2 -7 3 -6 20 4 30 0 59 -25 16 -14 32 -23 34 -20 5 5
-35 45 -165 161 -109 99 -138 128 -135 137 1 5 -2 6 -6 3 -12 -7 -44 28 -35
39 5 4 2 5 -4 1 -8 -4 -13 -2 -13 5 0 7 -3 10 -6 6 -7 -7 -70 53 -66 64 1 5
-1 8 -5 8 -22 -4 -35 3 -30 15 3 7 0 13 -7 12 -7 0 -45 28 -86 64 -40 36 -81
71 -92 78 -10 7 -16 18 -12 23 3 5 0 8 -8 7 -7 -2 -12 3 -10 10 1 8 -2 11 -9
7 -12 -8 -51 29 -41 39 3 4 -1 4 -11 0 -12 -4 -17 -1 -17 10 0 9 -5 16 -10 16
-10 0 -50 32 -97 77 -13 12 -23 20 -23 18 0 -2 -12 8 -27 23 -15 15 -27 31
-25 35 1 5 -2 6 -6 3 -8 -5 -28 7 -71 46 -8 7 -26 21 -40 30 -14 10 -21 18
-16 18 6 0 -1 6 -15 13 -14 8 -24 19 -22 26 1 7 -2 9 -8 6 -14 -9 -52 24 -43
38 3 6 1 7 -5 3 -6 -3 -15 1 -20 10 -5 9 -12 15 -16 14 -7 -2 -57 36 -91 68
-8 6 -19 12 -25 12 -7 0 -10 6 -7 14 3 8 -1 13 -11 12 -9 0 -16 5 -14 12 1 8
-2 11 -7 8 -12 -8 -63 33 -56 45 4 5 0 6 -8 4 -15 -6 -63 32 -59 47 1 5 -3 6
-9 2 -6 -3 -14 -2 -18 3 -3 5 -27 24 -53 42 -26 19 -45 38 -41 44 3 6 2 7 -4
4 -12 -7 -119 70 -116 83 2 5 -3 7 -10 5 -6 -3 -25 7 -42 21 -16 14 -42 33
-57 42 -16 9 -28 20 -28 24 0 4 -5 8 -11 8 -6 0 -34 18 -61 40 -28 22 -57 40
-64 40 -8 0 -14 4 -14 8 0 5 -30 28 -66 51 -51 33 -64 45 -53 53 10 7 8 8 -8
3 -15 -4 -25 0 -32 12 -5 10 -13 17 -18 17 -4 -1 -7 2 -5 7 1 5 -1 8 -5 8 -21
-3 -34 2 -28 11 4 6 2 9 -3 8 -12 -4 -91 44 -92 55 0 4 -5 7 -11 7 -11 0 -99
59 -110 73 -3 5 -9 8 -12 8 -13 -1 -77 41 -77 51 0 5 -4 7 -9 4 -5 -3 -14 1
-21 9 -7 8 -17 15 -23 15 -12 0 -90 51 -95 63 -2 4 -8 5 -13 1 -5 -3 -9 0 -9
5 0 6 -6 11 -13 11 -7 0 -23 9 -35 20 -12 12 -22 18 -22 15 0 -3 -25 10 -55
30 -31 19 -59 35 -63 35 -5 0 -17 8 -28 18 -10 10 -22 19 -27 20 -9 2 -104 51
-132 68 -11 7 -48 27 -82 45 -35 18 -63 37 -63 42 0 4 -4 5 -10 2 -5 -3 -10
-1 -10 4 0 6 -3 10 -7 9 -16 -3 -43 15 -36 25 3 6 1 7 -5 3 -16 -10 -74 22
-66 36 5 7 3 8 -5 4 -12 -8 -162 61 -169 77 -2 4 -13 7 -23 7 -11 0 -17 5 -14
10 3 6 -3 10 -13 10 -26 0 -103 41 -96 52 3 4 -2 5 -10 2 -9 -3 -16 -1 -16 6
0 6 -4 9 -9 6 -4 -3 -39 10 -77 28 -38 18 -87 42 -109 52 -22 10 -43 22 -46
27 -3 5 -9 8 -13 8 -20 -3 -26 0 -20 11 4 6 3 8 -4 4 -12 -7 -92 24 -92 37 0
4 -4 6 -8 3 -5 -3 -19 1 -33 7 -13 7 -51 24 -84 37 -33 13 -72 29 -87 37 -15
7 -31 14 -35 14 -5 1 -17 6 -28 12 -11 6 -26 12 -34 13 -8 2 -17 8 -21 14 -4
6 -11 10 -16 9 -5 -1 -22 1 -37 6 -21 5 -26 12 -22 24 5 13 4 14 -6 4 -16 -16
-33 -17 -23 -1 4 7 3 8 -4 4 -7 -4 -18 -4 -24 1 -7 4 -22 9 -32 10 -11 2 -25
8 -31 13 -7 5 -15 7 -18 3 -4 -3 -7 0 -7 7 0 7 -3 10 -6 7 -4 -3 -16 -1 -28 5
-11 7 -25 12 -31 13 -16 1 -89 27 -100 36 -9 6 -44 15 -78 18 -5 1 -5 6 -1 13
4 6 3 8 -4 4 -11 -7 -64 4 -159 33 -18 5 -33 7 -33 3 0 -3 -5 -1 -12 6 -7 7
-24 12 -38 12 -14 0 -31 5 -38 12 -7 7 -12 9 -12 6 0 -4 -15 -2 -32 3 -35 10
-94 21 -115 22 -7 0 -13 3 -13 6 0 3 -21 7 -47 9 -26 2 -50 6 -53 10 -3 4 -21
8 -40 10 -19 1 -38 8 -42 15 -6 9 -8 9 -8 -1 0 -7 -5 -10 -10 -7 -6 4 -22 9
-37 11 -15 3 -34 11 -42 17 -12 10 -13 9 -6 -2 6 -11 4 -13 -11 -7 -25 10 -44
14 -72 15 -16 1 -21 5 -16 14 6 9 5 9 -8 0 -8 -7 -18 -10 -22 -6 -4 4 -17 8
-29 10 -12 1 -35 4 -52 7 -16 2 -52 7 -80 10 -27 4 -59 9 -70 11 -11 2 -28 4
-38 4 -10 1 -16 5 -13 9 3 5 -8 7 -23 4 -16 -2 -38 1 -48 7 -14 7 -23 7 -31
-1 -7 -7 -12 -8 -12 -2 0 12 -144 13 -156 2 -12 -13 -26 -9 -18 5 6 9 5 9 -7
0 -8 -6 -39 -21 -69 -33 -86 -33 -180 -106 -240 -185 -20 -27 -60 -109 -60
-124 0 -6 -4 -11 -9 -11 -5 0 -7 -9 -4 -20 3 -11 1 -20 -4 -20 -5 0 -10 -6
-11 -12 -9 -67 -33 -138 -45 -131 -6 4 -8 0 -4 -10 4 -10 2 -30 -4 -45 -6 -15
-13 -38 -16 -52 -2 -13 -10 -28 -16 -32 -7 -4 -9 -8 -5 -8 4 0 0 -21 -8 -47
-16 -51 -21 -71 -28 -103 -3 -11 -8 -26 -13 -33 -4 -6 -8 -19 -8 -27 -1 -8 -2
-25 -3 -38 -1 -15 -6 -21 -14 -16 -6 4 -8 3 -5 -3 8 -13 -13 -123 -23 -123 -5
0 -6 -10 -2 -22 3 -11 1 -19 -4 -16 -5 4 -10 -10 -12 -30 -1 -21 -7 -50 -12
-67 -5 -16 -11 -42 -12 -57 -1 -16 -5 -28 -9 -28 -4 0 -6 -8 -4 -17 1 -10 0
-22 -4 -28 -3 -5 -6 -14 -6 -20 -3 -44 -19 -104 -26 -99 -5 3 -7 -1 -4 -8 3
-7 1 -36 -5 -63 -6 -28 -13 -70 -16 -95 -3 -25 -10 -47 -15 -48 -6 -3 -5 -9 1
-17 7 -9 8 -15 1 -19 -6 -4 -8 -13 -5 -20 3 -8 -2 -16 -13 -19 -17 -4 -17 -5
0 -6 12 -1 15 -5 10 -13 -4 -7 -8 -20 -8 -28 -1 -8 -5 -37 -9 -65 -5 -27 -10
-63 -11 -80 -1 -16 -3 -30 -4 -30 -1 0 -4 -20 -6 -44 -3 -25 -7 -61 -10 -80
-3 -20 -8 -63 -11 -96 -3 -33 -7 -71 -9 -85 -2 -14 -3 -39 -4 -57 -1 -21 -7
-33 -19 -36 -16 -4 -16 -5 1 -6 20 -1 23 -27 5 -34 -10 -4 -10 -6 0 -6 7 -1
11 -5 8 -9 -3 -4 -6 -39 -8 -76 -1 -37 -6 -70 -9 -72 -3 -2 -5 -19 -2 -39 2
-24 -1 -35 -9 -35 -7 0 -5 -5 5 -11 14 -8 16 -14 6 -25 -6 -8 -8 -14 -4 -14 4
0 1 -8 -6 -17 -8 -9 -9 -14 -4 -11 7 5 11 -18 10 -68 0 -40 -2 -74 -5 -74 -6
0 -3 -237 4 -262 2 -10 0 -18 -5 -18 -4 0 -6 -6 -3 -13 3 -8 6 -87 8 -178 2
-90 4 -164 5 -164 1 0 4 -43 6 -95 4 -90 6 -119 21 -257 4 -32 7 -69 8 -83 1
-14 5 -30 9 -37 4 -6 3 -15 -3 -18 -8 -5 -8 -11 -1 -19 6 -7 13 -46 16 -87 2
-41 5 -74 6 -74 2 0 3 -11 12 -71 2 -17 7 -36 11 -43 4 -6 1 -11 -6 -11 -9 0
-10 -3 -2 -8 6 -4 14 -23 17 -42 3 -19 9 -53 13 -75 4 -22 8 -56 8 -77 1 -20
4 -34 7 -33 3 2 11 -24 17 -58 7 -34 14 -73 17 -87 2 -14 9 -45 15 -69 6 -24
8 -51 6 -58 -3 -8 -2 -12 3 -9 5 3 11 -7 14 -22 3 -15 8 -38 12 -52 4 -14 8
-39 9 -57 0 -17 4 -29 7 -27 9 5 20 -56 12 -69 -4 -6 -1 -7 7 -2 10 6 12 3 8
-13 -4 -12 -2 -22 3 -22 5 0 9 -6 9 -13 0 -15 34 -131 55 -191 11 -29 12 -43
3 -53 -9 -11 -7 -12 7 -7 15 6 17 3 13 -14 -4 -12 -2 -20 3 -16 5 3 9 -4 9
-15 0 -19 10 -49 33 -98 5 -12 7 -29 3 -38 -3 -9 -2 -14 3 -11 10 7 21 -17 21
-44 0 -10 4 -20 9 -22 5 -2 11 -14 13 -28 1 -14 5 -27 9 -30 3 -3 13 -27 23
-55 10 -27 27 -69 38 -93 10 -23 16 -48 12 -54 -4 -7 -3 -8 4 -4 12 7 15 -1
15 -37 0 -10 2 -15 5 -12 8 8 43 -77 37 -92 -2 -8 0 -11 5 -8 6 3 15 -6 21
-22 6 -15 10 -28 8 -28 -1 0 15 -31 34 -69 20 -38 34 -73 30 -79 -3 -6 -1 -7
5 -3 11 6 16 -6 13 -26 0 -5 4 -8 9 -8 6 0 10 -9 10 -20 0 -11 5 -20 10 -20 6
0 10 -6 10 -12 0 -7 15 -38 34 -70 19 -31 32 -59 29 -62 -4 -3 -1 -6 5 -6 7 0
12 -9 12 -21 0 -11 5 -17 10 -14 6 3 10 1 10 -6 0 -6 16 -39 37 -72 20 -33 36
-66 36 -73 0 -7 5 -10 10 -7 6 4 8 -1 4 -11 -4 -10 -3 -15 3 -11 5 3 16 -7 22
-22 7 -15 16 -32 20 -38 27 -35 76 -115 70 -115 -3 0 2 -6 13 -13 11 -9 15
-19 10 -27 -5 -9 -4 -11 3 -6 11 6 16 -6 13 -26 0 -5 5 -7 12 -5 7 1 12 -7 11
-20 0 -12 3 -20 7 -17 12 7 80 -88 74 -103 -2 -8 0 -11 5 -8 5 3 22 -14 37
-37 15 -24 35 -52 45 -63 80 -98 117 -149 111 -158 -3 -5 -1 -7 4 -4 6 4 23
-9 38 -28 14 -20 37 -46 51 -60 13 -13 24 -28 24 -33 0 -6 7 -13 16 -16 9 -3
12 -11 8 -18 -4 -7 -4 -10 1 -6 11 10 38 -20 29 -33 -4 -8 -3 -9 5 -5 13 8 88
-70 83 -86 -1 -5 2 -7 6 -4 9 5 45 -26 40 -35 -2 -2 -1 -3 1 -2 9 6 30 -20 24
-30 -3 -5 -2 -7 4 -4 13 8 86 -67 76 -78 -5 -4 -3 -5 4 -1 13 7 70 -41 65 -56
-1 -5 2 -7 8 -3 5 3 13 -1 16 -9 3 -9 11 -16 16 -16 6 0 24 -13 40 -30 15 -17
33 -30 39 -30 6 0 8 -7 5 -16 -3 -9 -2 -12 5 -9 11 8 41 -14 34 -24 -2 -4 2
-8 9 -8 15 0 76 -44 76 -55 0 -4 6 -8 13 -8 7 0 19 -9 27 -19 7 -11 17 -18 22
-15 4 3 11 -2 14 -10 3 -9 10 -13 15 -10 5 3 12 -2 15 -10 3 -9 12 -16 19 -16
6 0 25 -12 42 -27 16 -16 36 -29 44 -31 8 -2 16 -8 17 -13 2 -5 8 -9 14 -9 5
0 28 -13 51 -28 23 -16 62 -40 87 -53 25 -13 47 -27 50 -30 3 -4 52 -30 110
-59 58 -29 107 -55 110 -59 3 -3 14 -8 25 -9 11 -2 25 -7 30 -11 6 -4 38 -18
72 -31 34 -13 59 -28 56 -34 -3 -5 -1 -6 5 -2 7 4 26 1 44 -7 18 -8 61 -23 96
-33 44 -14 61 -23 57 -33 -4 -10 -2 -11 8 -3 15 13 60 5 51 -9 -3 -5 2 -6 10
-3 8 3 23 1 34 -5 11 -6 37 -12 56 -13 20 -2 36 -6 36 -10 0 -5 11 -8 25 -8
14 0 25 -6 25 -12 0 -9 4 -8 10 2 5 8 10 10 10 3 0 -6 8 -10 18 -8 9 1 32 -4
50 -11 21 -9 30 -9 26 -2 -4 7 -3 8 4 4 13 -8 15 -8 132 -27 47 -7 88 -18 92
-23 5 -7 8 -6 8 2 0 8 7 11 18 7 17 -5 217 -18 250 -16 12 1 47 1 80 0 9 0 50
0 90 1 40 0 78 -2 84 -6 6 -4 8 -3 4 4 -4 7 7 10 31 10 21 -1 65 3 98 7 33 4
81 8 107 9 25 1 44 4 41 8 -4 7 15 10 84 11 12 1 20 4 17 8 -2 4 4 8 13 8 38
0 79 7 91 14 6 5 12 6 12 3 0 -3 15 1 33 8 17 7 46 12 64 12 17 -1 29 2 26 7
-2 4 -1 7 4 8 4 0 19 3 33 6 14 3 35 6 47 7 11 1 19 4 16 8 -2 5 3 9 11 9 19
2 26 4 48 13 9 4 23 4 30 0 7 -4 10 -4 6 1 -7 8 109 54 144 58 10 0 18 5 18 9
0 4 4 8 9 8 5 0 26 8 47 17 22 9 41 17 44 18 34 10 356 169 377 187 7 5 18 6
24 2 8 -4 9 -3 5 4 -4 7 -1 12 8 12 9 0 16 5 16 11 0 5 5 7 10 4 6 -3 10 -2
10 3 0 5 12 15 28 23 15 7 59 35 99 61 40 27 77 48 83 48 5 0 10 5 10 12 0 6
3 9 6 6 3 -3 17 5 31 18 14 13 32 24 39 24 7 0 14 4 16 8 7 17 101 81 111 75
5 -3 7 -2 4 4 -3 5 3 16 15 24 11 8 27 20 34 27 8 7 19 10 25 6 7 -4 9 -3 5 4
-3 6 5 19 19 29 14 10 47 37 73 61 26 23 51 42 56 42 4 0 17 11 28 25 11 14
24 22 30 19 6 -4 9 -3 6 2 -3 5 5 18 19 29 14 11 41 37 61 58 19 20 45 37 56
38 12 0 15 3 9 6 -10 3 -9 8 2 19 8 9 19 12 25 9 6 -4 9 -3 8 2 -4 12 44 63
54 57 5 -3 7 -1 6 4 -4 12 234 242 244 236 4 -3 5 3 1 13 -6 16 -4 16 17 -2
l23 -20 -13 21 c-11 18 -10 24 9 43 12 12 27 19 33 15 6 -4 8 -3 5 3 -7 12
131 159 145 155 5 -1 7 2 3 8 -3 5 -1 10 4 10 6 0 11 4 11 9 0 12 112 126 122
123 4 -1 7 1 6 5 -5 16 30 55 43 48 8 -5 10 -4 5 4 -9 13 18 43 29 33 5 -4 5
-2 2 4 -8 14 36 57 48 47 4 -5 5 -2 1 5 -9 15 32 59 49 54 5 -2 7 0 3 4 -4 4
-3 13 3 21 9 10 15 10 25 2 9 -7 14 -8 14 -1 0 6 -6 13 -12 15 -9 3 -3 15 17
35 17 16 43 46 59 66 15 20 33 33 39 29 6 -3 7 -1 3 5 -6 10 18 42 82 108 12
13 22 28 22 34 0 5 7 10 16 10 9 0 12 5 8 12 -5 7 -2 9 9 5 11 -4 14 -2 11 7
-5 12 17 41 84 113 12 13 30 35 38 49 9 13 21 21 27 17 5 -3 7 -1 4 4 -4 6 5
25 21 42 15 17 36 42 47 56 11 14 28 36 38 48 10 12 30 37 45 56 15 18 37 44
49 57 12 13 20 24 17 24 -3 0 7 12 21 28 14 15 35 42 46 60 12 19 26 29 32 25
7 -3 9 -3 5 2 -4 4 13 34 38 66 32 40 51 56 62 52 14 -4 14 -3 3 5 -16 11 -5
36 11 26 6 -4 8 -2 4 4 -3 6 1 15 10 20 9 5 16 13 16 18 0 5 4 8 10 6 5 -1 7
2 4 6 -6 11 32 58 44 55 4 -1 7 5 6 15 0 9 4 16 11 15 8 -2 10 4 6 14 -4 11
-3 14 5 9 7 -4 12 -2 12 4 0 6 11 22 25 35 13 14 21 25 18 25 -3 0 0 7 7 15 7
8 17 12 23 8 6 -3 7 -1 3 6 -5 7 3 22 18 36 15 14 27 28 27 32 0 12 83 113 92
113 4 0 5 4 2 10 -3 5 -2 10 2 10 5 0 16 12 26 28 9 15 29 41 44 58 15 18 35
42 43 55 8 13 27 36 42 51 14 15 24 28 22 28 -4 0 59 83 76 100 3 3 25 31 49
62 24 32 47 55 52 52 5 -3 7 1 4 8 -3 7 8 27 23 43 16 17 37 43 47 58 10 15
24 26 31 23 8 -3 11 0 8 9 -7 17 55 97 69 88 6 -3 7 -1 3 5 -3 6 0 14 8 19 8
4 15 13 16 18 3 18 53 74 61 69 5 -3 6 1 3 9 -3 9 6 24 22 36 15 11 24 21 20
21 -4 0 -1 6 6 14 7 8 17 11 22 8 5 -3 6 -1 3 5 -6 10 115 164 134 171 5 2 9
9 9 16 0 15 36 46 45 38 3 -4 3 2 -1 13 -6 15 -4 17 10 12 10 -4 15 -3 11 3
-3 5 3 20 14 32 12 12 21 26 21 31 0 5 7 7 14 4 9 -4 13 -1 10 6 -2 7 16 33
41 59 25 26 45 52 45 57 0 5 8 16 18 23 10 7 35 34 56 60 21 26 43 45 49 41 5
-3 7 -2 4 4 -3 5 9 27 28 48 19 21 35 42 35 47 0 5 4 7 9 4 4 -3 13 6 20 20 6
15 16 22 23 18 6 -4 8 -3 5 3 -8 13 17 36 28 25 5 -4 6 -2 2 3 -8 15 20 48 34
39 8 -4 10 -3 5 4 -4 7 14 33 41 61 26 28 59 64 73 80 14 17 31 31 38 31 7 0
11 4 8 9 -3 4 8 20 24 35 17 14 30 30 30 34 0 5 11 15 25 22 14 7 25 17 25 22
0 15 82 88 93 81 5 -3 7 -1 4 4 -8 13 17 36 28 25 5 -4 5 -1 1 6 -10 16 41 65
56 56 6 -4 9 -3 5 2 -8 14 20 47 34 38 7 -4 10 -3 5 4 -7 12 91 109 106 104 5
-1 7 2 4 7 -3 5 0 14 8 20 11 9 15 9 20 -1 3 -7 4 -4 3 7 -1 12 3 19 11 17 8
-1 11 2 8 6 -3 5 17 29 46 53 28 24 65 58 83 76 18 18 36 29 40 25 5 -4 6 -2
2 4 -6 11 81 91 95 87 4 -2 7 1 5 6 -4 14 53 62 65 55 6 -4 8 -3 5 3 -7 11 1
19 171 166 62 53 118 97 124 97 6 0 8 3 5 6 -3 4 5 15 19 26 21 17 27 18 42 6
15 -11 16 -11 4 3 -10 13 -10 18 1 28 8 6 18 7 22 3 5 -4 5 -2 1 5 -8 14 38
48 52 39 6 -3 9 0 8 8 -1 18 73 78 87 69 5 -3 7 -1 3 5 -8 13 43 54 57 45 5
-3 7 -1 4 4 -4 6 3 18 16 26 12 8 31 23 42 34 11 10 36 30 55 43 19 13 46 35
60 47 14 13 30 21 37 19 8 -3 10 1 6 11 -5 13 -2 15 12 9 11 -4 16 -4 13 0 -7
7 43 52 50 46 2 -2 9 4 16 14 8 11 18 14 26 9 8 -5 11 -4 7 2 -4 6 2 18 13 28
11 10 20 15 20 12 0 -4 17 9 37 28 20 19 42 35 49 35 6 0 19 9 29 20 10 11 24
20 30 20 7 0 16 7 19 16 4 9 13 14 21 10 8 -3 15 0 15 7 1 17 48 49 62 41 7
-4 8 -3 4 5 -4 6 0 14 11 18 10 4 23 11 28 15 36 31 151 108 161 108 7 0 14 7
18 15 3 9 12 12 22 8 10 -4 15 -2 11 3 -3 6 8 19 26 29 18 10 34 21 37 25 12
15 78 49 83 43 4 -3 7 -2 7 4 0 5 24 25 53 43 28 18 63 40 77 49 54 34 66 41
83 47 9 3 17 11 17 16 0 5 6 8 12 6 7 -3 24 6 38 19 14 13 33 22 42 19 12 -3
15 1 11 13 -4 9 -3 13 2 9 4 -4 24 4 44 17 19 14 41 25 48 25 7 0 13 5 13 11
0 6 9 9 19 6 15 -4 18 -1 14 12 -4 9 -3 13 2 9 4 -4 21 2 36 13 16 11 38 21
48 22 11 0 18 4 15 8 -6 10 26 20 38 12 6 -3 8 -1 4 5 -3 6 15 20 44 33 27 12
50 26 50 31 0 4 9 8 19 8 11 0 22 4 26 9 6 11 134 75 150 76 6 0 15 6 21 14 6
8 16 11 21 8 6 -4 13 -1 16 6 3 7 23 19 46 27 23 7 41 17 41 21 0 4 10 6 21 4
12 -3 19 -2 15 2 -11 11 78 50 92 40 9 -7 11 -5 6 9 -4 10 -4 16 0 13 4 -4 35
7 69 23 34 17 67 31 72 33 6 1 27 10 47 19 21 9 39 15 40 14 2 -1 14 5 28 12
14 8 27 15 30 15 3 1 16 7 30 12 14 6 68 28 120 48 52 20 109 42 125 49 56 25
105 37 116 30 7 -4 9 -3 6 3 -5 8 48 33 83 39 3 0 14 4 25 8 76 29 93 34 99
28 4 -3 10 -2 14 4 6 10 79 34 110 36 6 1 12 5 12 10 0 5 5 6 10 3 6 -4 18 -1
27 7 9 7 17 11 17 8 1 -6 83 18 109 31 12 6 17 5 17 -3 0 -10 2 -10 8 0 5 7
17 14 28 16 10 2 32 7 48 12 23 5 28 4 22 -7 -4 -8 -1 -6 7 4 9 10 31 18 55
20 22 1 38 5 36 8 -2 4 108 32 138 34 3 0 10 3 14 7 4 4 14 2 22 -5 13 -9 14
-9 8 1 -5 8 0 12 16 14 37 2 42 3 56 11 6 5 12 6 12 3 0 -2 13 -1 30 4 33 9
37 6 44 -36 3 -16 8 -40 11 -54 16 -69 17 -82 3 -75 -7 3 -6 0 4 -7 9 -8 17
-29 19 -48 2 -19 5 -39 8 -45 6 -12 13 -60 15 -102 0 -18 4 -33 7 -33 3 0 6
-6 6 -12 1 -7 3 -29 6 -48 11 -66 18 -115 22 -145 2 -16 4 -30 5 -30 1 0 3
-11 5 -25 2 -14 7 -52 11 -85 4 -33 8 -81 8 -107 1 -25 5 -44 9 -41 5 3 6 -9
4 -25 -3 -17 -2 -33 1 -37 4 -3 7 -16 8 -28 2 -23 14 -169 18 -222 1 -16 -3
-36 -8 -44 -8 -11 -8 -13 2 -7 9 5 12 -5 13 -41 2 -104 8 -185 13 -198 3 -8 0
-15 -7 -15 -8 0 -9 -3 -1 -8 13 -9 13 -64 -1 -74 -6 -5 -5 -8 2 -8 10 0 12
-69 11 -300 0 -165 -5 -303 -9 -306 -5 -3 -5 -13 1 -23 5 -10 7 -21 3 -24 -3
-3 -6 -31 -6 -62 -1 -30 -3 -55 -7 -55 -3 0 -3 -21 -1 -46 2 -37 0 -45 -10
-38 -11 6 -12 5 -2 -7 7 -9 9 -20 3 -29 -5 -9 -5 -19 2 -27 7 -9 7 -13 0 -13
-6 0 -9 -8 -7 -17 1 -10 -3 -24 -9 -32 -8 -12 -8 -13 2 -7 10 6 11 1 6 -21 -4
-15 -7 -32 -8 -38 0 -5 -5 -13 -11 -17 -6 -5 -6 -8 1 -8 7 0 9 -11 7 -27 -2
-16 -4 -36 -4 -45 0 -10 -3 -18 -7 -18 -4 0 -6 -17 -6 -37 1 -21 -1 -42 -4
-47 -3 -5 -7 -32 -9 -59 -2 -32 -10 -55 -21 -64 -9 -8 -11 -12 -4 -8 8 4 12
-2 12 -20 0 -14 -3 -24 -7 -22 -5 3 -9 -14 -9 -36 -1 -36 -10 -92 -14 -92 -1
0 -3 -13 -5 -30 -3 -26 -16 -91 -20 -105 -1 -3 -5 -23 -9 -45 -5 -22 -15 -65
-23 -95 -8 -30 -17 -66 -20 -80 -2 -14 -7 -32 -10 -40 -9 -22 -9 -21 -17 -72
-5 -27 -11 -48 -15 -48 -4 0 -7 -9 -8 -19 -1 -11 -9 -40 -17 -65 -9 -26 -16
-54 -16 -62 0 -8 -4 -13 -8 -10 -4 3 -8 -5 -8 -17 0 -32 -26 -107 -35 -102 -4
3 -5 -5 -1 -17 3 -13 1 -19 -5 -15 -6 4 -8 -4 -5 -20 3 -16 1 -24 -5 -20 -6 4
-10 -3 -9 -16 0 -12 -4 -21 -10 -20 -6 1 -10 -8 -9 -20 1 -12 -1 -26 -5 -32
-5 -5 -13 -26 -18 -45 -22 -73 -39 -110 -47 -103 -4 5 -5 3 -1 -4 4 -7 2 -20
-3 -30 -14 -27 -47 -103 -62 -145 -7 -21 -17 -38 -21 -38 -4 0 -7 -3 -6 -7 1
-5 -3 -18 -10 -30 -7 -13 -9 -23 -5 -23 4 0 3 -4 -2 -8 -6 -4 -19 -26 -29 -49
-11 -24 -23 -43 -27 -43 -5 0 -6 -6 -3 -14 3 -8 -5 -25 -18 -38 -13 -13 -22
-27 -20 -32 2 -5 0 -16 -3 -24 -4 -12 -8 -12 -23 -1 -15 13 -16 12 -4 -3 11
-14 5 -30 -39 -109 -55 -99 -80 -141 -89 -149 -4 -3 -9 -13 -13 -23 -4 -10
-11 -15 -17 -12 -6 3 -7 -1 -4 -9 3 -9 1 -16 -6 -16 -6 0 -8 -4 -5 -10 3 -5 1
-10 -4 -10 -6 0 -11 -7 -11 -15 0 -8 -4 -15 -10 -15 -5 0 -10 -6 -10 -13 0 -7
-9 -23 -20 -35 -11 -12 -20 -26 -20 -33 0 -6 -7 -9 -14 -6 -10 4 -13 1 -10 -7
3 -7 -6 -27 -20 -43 -14 -17 -22 -34 -18 -38 4 -5 -1 -5 -10 -2 -11 4 -15 2
-13 -6 6 -17 -21 -50 -34 -42 -6 3 -9 0 -6 -7 3 -8 -3 -23 -13 -34 -11 -11
-25 -30 -31 -42 -7 -13 -17 -19 -23 -16 -6 4 -8 3 -5 -3 4 -5 -6 -24 -20 -42
-20 -24 -29 -29 -36 -19 -6 10 -7 8 -4 -4 7 -20 -27 -63 -42 -53 -6 3 -8 0 -5
-8 6 -16 -21 -47 -223 -254 -85 -87 -136 -132 -144 -127 -8 5 -10 3 -4 -6 5
-8 1 -18 -10 -26 -9 -7 -39 -34 -66 -59 -27 -26 -49 -44 -49 -41 0 3 -14 -9
-31 -27 -17 -17 -35 -31 -40 -29 -5 1 -9 -5 -9 -15 0 -9 -3 -14 -6 -10 -3 3
-18 -6 -32 -21 -15 -15 -43 -38 -62 -52 -19 -13 -41 -30 -47 -36 -7 -7 -28
-22 -48 -34 -19 -12 -35 -26 -35 -32 0 -6 -9 -8 -19 -5 -14 3 -18 1 -14 -9 3
-8 1 -14 -5 -14 -5 0 -27 -12 -48 -26 -21 -15 -59 -38 -84 -52 -25 -14 -56
-33 -69 -43 -13 -10 -27 -16 -32 -13 -5 3 -9 1 -9 -3 0 -5 -16 -15 -35 -22
-19 -7 -35 -17 -35 -23 0 -6 -9 -8 -20 -5 -11 3 -18 2 -15 -3 3 -4 -21 -18
-53 -31 -31 -12 -63 -27 -70 -32 -7 -5 -15 -7 -18 -4 -4 3 -13 0 -21 -8 -8 -8
-23 -15 -33 -15 -10 0 -22 -5 -25 -11 -4 -6 -13 -8 -20 -5 -8 3 -15 0 -17 -6
-2 -6 -20 -12 -40 -12 -20 -1 -34 -4 -32 -7 5 -9 -26 -20 -37 -13 -5 3 -9 0
-9 -7 0 -7 -10 -9 -25 -7 -13 3 -22 2 -20 -3 6 -8 -74 -30 -117 -33 -14 0 -24
-5 -21 -10 3 -5 -8 -7 -25 -4 -17 2 -29 1 -27 -3 4 -6 -15 -10 -110 -25 -11
-1 -42 -6 -70 -9 -27 -4 -53 -9 -57 -11 -4 -3 -8 1 -8 8 0 10 -2 10 -8 1 -5
-8 -43 -14 -97 -17 -50 -3 -90 -6 -90 -6 0 -1 -12 -3 -27 -4 -16 -1 -28 2 -28
7 0 4 -5 5 -12 1 -20 -13 -78 -13 -78 0 0 8 -2 8 -8 0 -9 -14 -42 -14 -42 0 0
6 -4 5 -9 -3 -8 -13 -12 -13 -27 0 -10 8 -15 9 -12 4 7 -11 -22 -11 -147 -1
-70 6 -173 18 -187 22 -5 1 -27 2 -50 3 -32 1 -39 4 -28 11 8 5 10 10 5 10 -6
0 -16 -5 -23 -12 -7 -7 -12 -8 -12 -2 0 5 -17 10 -37 11 -21 1 -58 7 -83 13
-86 20 -116 26 -143 29 -5 1 -5 7 -1 14 5 9 4 9 -6 0 -9 -8 -20 -8 -46 3 -19
8 -36 14 -39 14 -25 0 -27 1 -14 18 13 16 12 16 -6 1 -19 -15 -27 -14 -125 18
-58 18 -112 37 -120 40 -18 8 -27 10 -41 12 -5 0 -8 4 -6 9 3 4 -7 8 -21 8
-15 1 -45 10 -67 20 -22 10 -44 18 -50 18 -5 1 -32 11 -59 24 -27 12 -53 22
-58 22 -5 0 -6 5 -2 12 4 6 3 8 -4 4 -15 -9 -93 24 -85 37 3 6 1 7 -5 3 -15
-9 -193 75 -185 87 3 6 2 7 -4 4 -11 -7 -94 29 -104 45 -3 5 -9 9 -13 7 -15
-4 -125 65 -119 74 3 6 1 7 -4 4 -14 -9 -75 22 -68 34 4 5 -1 6 -9 3 -9 -3
-25 4 -39 18 -13 13 -28 23 -33 21 -6 -2 -19 5 -29 15 -11 10 -24 19 -30 20
-5 1 -10 7 -10 14 0 6 -11 12 -23 13 -13 1 -28 8 -33 16 -5 8 -9 10 -9 6 0 -5
-7 -1 -16 7 -8 9 -35 28 -60 42 -24 14 -41 31 -37 36 3 7 1 8 -5 4 -11 -7 -22
-1 -63 37 -10 9 -19 15 -19 12 0 -3 -6 -1 -12 5 -7 6 -61 46 -120 89 -60 43
-105 81 -100 86 4 5 2 5 -4 2 -6 -3 -22 5 -37 19 -14 13 -31 24 -38 24 -6 0
-9 7 -6 14 4 10 1 13 -8 10 -8 -3 -20 4 -27 15 -7 12 -18 21 -24 21 -6 0 -19
9 -30 21 -10 11 -28 26 -39 31 l-20 11 20 -22 c11 -12 35 -36 53 -53 18 -18
30 -38 28 -45 -3 -7 -2 -12 2 -12 20 3 32 -3 32 -16 0 -8 6 -15 14 -15 14 0
31 -27 27 -43 -1 -5 2 -6 7 -3 5 3 32 -18 61 -47 28 -29 69 -70 90 -92 22 -21
37 -43 34 -49 -3 -5 -1 -6 5 -2 6 4 26 -8 45 -26 35 -34 142 -130 187 -168 14
-11 37 -31 51 -43 14 -12 41 -34 60 -49 64 -50 79 -65 71 -73 -4 -5 -2 -5 5
-1 11 6 37 -11 79 -52 8 -7 14 -10 14 -5 0 4 6 1 13 -7 7 -8 38 -33 69 -54 32
-21 66 -47 77 -57 10 -10 22 -15 25 -12 3 4 6 1 6 -5 0 -7 6 -12 13 -12 8 0
22 -9 32 -20 10 -11 23 -20 28 -20 6 0 24 -11 41 -23 17 -13 48 -32 69 -42 20
-9 37 -21 37 -26 0 -5 6 -9 13 -9 7 0 22 -8 33 -18 11 -10 24 -17 30 -15 5 2
20 -6 32 -17 12 -12 33 -23 45 -25 12 -3 29 -13 37 -22 8 -10 20 -18 25 -18
13 0 188 -88 196 -98 3 -5 9 -8 13 -8 20 3 26 0 20 -11 -4 -6 -3 -8 3 -5 13 8
73 -12 73 -24 0 -5 3 -8 8 -7 7 1 24 -4 67 -22 19 -8 54 -21 65 -25 25 -8 68
-27 82 -35 10 -6 25 -10 33 -10 9 0 14 -3 12 -7 -3 -5 6 -9 19 -10 44 -4 54
-6 54 -12 0 -4 12 -8 26 -9 14 -1 31 -5 37 -9 7 -4 17 -8 22 -9 21 -3 130 -39
135 -44 3 -3 10 -5 15 -5 38 -2 104 -19 100 -25 -3 -5 9 -6 27 -3 30 4 31 4
17 -14 -12 -16 -12 -17 2 -6 12 10 31 10 90 -3 85 -17 113 -22 152 -23 18 -1
26 -5 21 -12 -5 -8 -1 -8 13 0 11 6 23 7 27 4 3 -4 30 -8 59 -10 68 -4 103 -9
118 -19 8 -4 10 -3 5 4 -4 7 -3 12 3 12 5 0 12 -4 15 -9 3 -5 16 -7 28 -3 16
4 19 2 13 -9 -7 -11 -6 -12 6 -3 16 12 119 12 139 -1 7 -5 11 -4 8 1 -8 12
155 12 164 -1 5 -7 8 -7 8 0 0 6 13 11 30 11 19 1 28 -2 24 -10 -3 -6 0 -4 8
4 7 9 32 15 58 16 44 1 137 10 215 22 22 3 56 6 77 6 20 1 34 4 31 9 -2 4 6 7
19 8 26 1 31 2 111 23 70 19 80 20 72 4 -4 -7 -1 -6 7 3 16 19 102 44 119 34
7 -5 10 -4 6 2 -8 12 50 26 66 16 6 -3 7 -1 3 5 -6 10 7 17 17 10 2 -2 11 3
20 11 9 7 25 10 34 7 10 -4 14 -4 10 0 -10 10 112 56 126 47 5 -3 7 -2 4 4 -6
10 57 38 85 37 10 -1 15 2 13 7 -5 8 33 25 48 21 4 -1 7 2 7 6 0 8 74 38 77
31 1 -2 8 5 16 15 8 11 19 16 25 12 7 -4 12 -3 12 2 0 6 12 15 28 21 15 6 49
25 76 42 27 16 55 28 63 25 8 -3 12 -2 9 3 -9 13 21 34 36 25 7 -4 10 -4 6 1
-8 8 61 59 70 51 3 -3 12 3 20 15 11 16 17 18 28 8 12 -10 13 -9 8 4 -4 11 2
20 20 28 14 7 26 16 26 21 0 4 7 8 15 8 8 0 15 5 15 10 0 6 6 10 14 10 8 0 17
7 20 16 4 9 9 14 12 11 3 -2 17 6 31 19 14 13 30 21 36 17 6 -3 7 -1 3 5 -3 6
2 16 12 21 22 12 85 65 119 100 13 13 23 22 23 19 0 -3 29 23 64 58 34 35 66
60 70 56 4 -4 6 0 4 8 -2 8 3 14 10 12 6 -1 11 1 10 5 -4 13 44 63 54 57 5 -3
7 0 6 8 -2 7 3 12 10 10 8 -1 11 2 7 7 -3 6 11 29 32 53 44 49 57 65 98 115
17 20 43 50 59 67 16 17 29 32 28 34 -6 8 43 60 51 55 6 -3 7 -1 3 5 -3 6 0
16 7 24 7 7 26 31 42 53 17 22 32 42 35 45 3 3 17 21 30 40 13 19 33 43 44 53
12 10 14 15 6 11 -8 -4 -3 8 13 27 15 18 32 45 37 58 9 20 12 21 28 10 15 -12
16 -12 5 2 -11 13 -7 24 20 62 19 26 37 44 42 40 4 -5 5 -2 1 4 -4 7 4 27 18
46 15 19 26 37 26 41 0 9 53 90 65 98 7 5 7 8 0 8 -5 0 -2 7 8 14 10 8 18 17
18 20 -2 15 1 22 14 40 12 16 17 17 32 5 17 -13 17 -12 0 8 -18 20 -18 22 5
43 13 13 17 20 10 16 -13 -8 26 65 41 75 5 3 8 8 7 10 -1 2 3 17 9 32 7 17 15
25 23 21 6 -4 8 -3 5 3 -4 6 3 34 14 62 19 45 24 50 38 39 14 -11 14 -11 3 3
-10 14 -9 24 9 60 12 24 27 55 33 69 6 14 15 28 21 32 5 4 6 8 2 8 -4 0 -2 10
5 23 7 12 12 24 13 27 1 18 40 98 45 95 4 -3 6 7 4 20 -1 14 2 25 7 25 5 0 9
8 9 18 0 10 5 23 12 30 7 7 9 12 5 12 -4 0 1 17 12 38 10 20 20 42 22 47 2 6
7 9 10 8 3 -1 4 10 1 24 -4 20 -2 24 8 18 8 -5 11 -4 7 2 -8 12 13 83 24 83 5
0 6 7 3 15 -4 8 -1 15 5 15 6 0 10 3 10 8 -4 23 2 52 10 47 5 -3 13 0 17 6 4
8 3 9 -4 5 -14 -9 -15 4 -3 36 5 13 9 25 9 28 0 3 6 19 12 35 7 17 14 41 17
55 2 14 8 27 14 28 5 2 7 7 4 11 -9 15 16 82 28 75 9 -5 9 -4 0 6 -9 10 -9 20
2 47 8 18 14 36 15 38 0 3 0 6 1 8 1 1 2 13 3 27 2 14 9 43 16 65 17 49 17 49
19 81 1 16 5 23 13 18 7 -4 8 -3 4 5 -4 6 -2 36 5 65 9 42 15 53 28 49 13 -4
13 -3 2 5 -12 9 -11 32 4 92 0 3 5 28 10 55 4 28 10 57 11 65 5 20 15 92 16
108 1 6 5 12 9 12 5 0 6 7 2 16 -3 9 0 20 8 25 9 5 10 9 2 9 -8 0 -9 9 -4 28
4 15 6 33 4 40 -3 6 0 12 6 12 6 0 11 -5 11 -12 0 -6 3 -8 6 -5 4 4 1 13 -5
21 -8 10 -10 27 -6 47 6 28 12 74 14 117 1 8 6 10 14 6 9 -6 9 -4 1 7 -6 8
-10 23 -8 34 9 52 15 113 14 143 0 25 3 32 12 26 10 -6 11 -5 1 8 -7 8 -10 17
-8 20 3 3 8 52 12 109 7 122 6 121 16 136 4 6 3 14 -3 18 -6 4 -8 10 -6 13 2
4 5 32 7 62 1 30 7 58 13 62 7 5 7 8 -1 8 -7 0 -13 9 -13 21 0 13 4 18 12 13
7 -5 8 -3 2 7 -9 14 -7 266 2 281 3 4 2 8 -3 8 -4 0 -9 80 -10 178 -1 97 -2
186 -3 197 0 11 0 27 0 35 0 8 -2 31 -5 50 -3 19 -6 79 -8 132 -1 54 -5 98
-10 98 -10 0 -4 23 8 32 6 5 5 8 -4 8 -11 0 -11 3 0 17 8 10 9 14 2 10 -8 -5
-11 2 -11 23 1 17 -1 33 -5 36 -3 3 -1 19 3 35 6 19 5 27 -1 23 -6 -3 -10 2
-9 12 1 11 1 21 0 24 -1 3 -4 32 -6 65 -3 33 -9 77 -14 98 -5 23 -4 39 2 43 7
4 7 9 0 13 -5 3 -12 31 -15 61 -3 30 -8 69 -11 85 -3 17 -8 48 -11 70 -7 49
-11 72 -21 127 -9 49 -13 79 -18 128 -2 19 -6 42 -10 50 -3 8 -8 29 -10 45 -2
17 -6 41 -9 55 -4 14 -9 39 -11 55 -3 17 -10 50 -16 74 -8 32 -8 47 1 58 10
11 9 14 -2 11 -9 -2 -14 6 -14 24 1 14 -4 24 -9 21 -5 -4 -7 3 -4 15 4 12 3
22 -2 22 -4 0 -11 24 -15 53 -5 28 -9 54 -10 57 -9 27 -27 68 -35 82 -6 10
-10 25 -10 33 0 8 -4 15 -9 15 -5 0 -12 8 -15 18 -3 9 -27 40 -53 67 -27 28
-46 55 -45 60 2 6 1 7 -3 3 -7 -7 -85 37 -96 54 -3 5 -9 9 -13 9 -16 -2 -66
12 -66 19 0 3 -6 7 -12 7 -27 1 -133 15 -139 19 -3 2 -8 2 -10 0z"/>
<path d="M13276 11658 c3 -5 10 -6 15 -3 13 9 11 12 -6 12 -8 0 -12 -4 -9 -9z"/>
<path d="M18110 10120 c0 -5 5 -10 11 -10 5 0 7 5 4 10 -3 6 -8 10 -11 10 -2
0 -4 -4 -4 -10z"/>
<path d="M16835 10009 c-4 -6 -5 -12 -2 -15 2 -3 7 2 10 11 7 17 1 20 -8 4z"/>
<path d="M1060 9806 c0 -2 8 -10 18 -17 15 -13 16 -12 3 4 -13 16 -21 21 -21
13z"/>
<path d="M7770 8799 c0 -5 5 -7 10 -4 6 3 10 8 10 11 0 2 -4 4 -10 4 -5 0 -10
-5 -10 -11z"/>
<path d="M10675 7600 c-3 -5 -1 -10 4 -10 6 0 11 5 11 10 0 6 -2 10 -4 10 -3
0 -8 -4 -11 -10z"/>
<path d="M15353 7325 c0 -8 4 -12 9 -9 5 3 6 10 3 15 -9 13 -12 11 -12 -6z"/>
<path d="M11560 6680 c-9 -6 -10 -10 -3 -10 6 0 15 5 18 10 8 12 4 12 -15 0z"/>
<path d="M7640 6600 c-8 -5 -10 -10 -5 -10 6 0 17 5 25 10 8 5 11 10 5 10 -5
0 -17 -5 -25 -10z"/>
<path d="M10505 6160 c-3 -6 1 -7 9 -4 18 7 21 14 7 14 -6 0 -13 -4 -16 -10z"/>
<path d="M6030 6120 c0 -5 5 -10 11 -10 5 0 7 5 4 10 -3 6 -8 10 -11 10 -2 0
-4 -4 -4 -10z"/>
<path d="M15510 5826 c0 -2 7 -7 16 -10 8 -3 12 -2 9 4 -6 10 -25 14 -25 6z"/>
<path d="M16680 5820 c-9 -6 -10 -10 -3 -10 6 0 15 5 18 10 8 12 4 12 -15 0z"/>
<path d="M3907 4859 c7 -7 15 -10 18 -7 3 3 -2 9 -12 12 -14 6 -15 5 -6 -5z"/>
</g>
</svg>
