<svg xmlns="http://www.w3.org/2000/svg" width="354.54739mm" height="59.7781mm" viewBox="0 0 1005.01624 169.44974"><title>logo-light</title><path d="M119.42461,121.07836" transform="translate(-1.21326 -1.05026)" fill="none"/><path d="M97.19067,99.56055c-5.83288-4.2218-11.74084-8.304-17.84082-12.0387A197.70934,197.70934,0,0,0,60.68152,77.186a159.61,159.61,0,0,0-19.53858-7.96753c-1.66613-.53247-3.32031-1.09009-5.00573-1.54017l-2.51282-.71289-2.53186-.62732L29.82776,66.028l-.63172-.155-.31579-.07751a.59582.59582,0,0,0,.166.05579A2.10057,2.10057,0,0,0,30.98083,65.28a2.05448,2.05448,0,0,0,.48353-.75464.62488.62488,0,0,0,.04834-.14429l-.02356.31995-.04737.63953c-.06079.85278-.12732,1.70324-.20691,2.55114-.114,1.70166-.22876,3.40381-.3728,5.1023-.05981,1.70459-.27295,3.40576-.26392,5.115-.01928,1.708-.06787,3.41833.04627,5.12341.04272.85254.06042,1.70752.12195,2.55835l.22571,2.54846c.11047,1.70508.40637,3.38135.615,5.07117.24145,1.68372.59716,3.3429.89453,5.014a80.682,80.682,0,0,0,2.74572,9.727,56.31971,56.31971,0,0,0,9.46241,17.28381c4.09155,5.04969,9.1676,9.15991,14.54724,10.261a16.69418,16.69418,0,0,0,8.27-.35852,30.54316,30.54316,0,0,0,8.28576-3.97485c5.38306-3.56641,10.28553-8.43311,14.892-13.608,4.621-5.20227,8.93347-10.80053,13.39649-16.48767q6.72472-8.52338,13.76526-16.82495a358.93394,358.93394,0,0,1,30.13208-31.605A231.12024,231.12024,0,0,1,182.91565,26.1095,175.01143,175.01143,0,0,1,223.12646,7.69543,166.28,166.28,0,0,1,244.72424,2.5752c1.82935-.27552,3.65491-.58252,5.48767-.82972l5.50965-.64941c.03357-.00464.11023-.01489.34143-.02893.1831-.01026.37158-.01917.55054-.01636a7.44528,7.44528,0,0,1,1.0415.088,7.53777,7.53777,0,0,1,1.84692.53077,7.98339,7.98339,0,0,1,2.874,2.0852,7.7406,7.7406,0,0,1,1.06347,1.5564,7.319,7.319,0,0,1,.40174.92846l.10925.32459.05029.16479.40283,1.3191c.54712,1.75561,1.07007,3.51867,1.55579,5.29321a193.49444,193.49444,0,0,1,4.77857,21.564A172.3478,172.3478,0,0,1,272.948,56.95544a136.02414,136.02414,0,0,1-5.348,44.2085,109.43944,109.43944,0,0,1-8.71961,20.78919,104.52076,104.52076,0,0,1-13.028,18.48022,86.66449,86.66449,0,0,1-17.21131,15.004,75.903,75.903,0,0,1-10.23181,5.46777,46.71064,46.71064,0,0,1-11.08349,3.58435c-1.906.3982-3.85132.55664-5.77076.78967-1.93542.11268-3.86035.272-5.788.2262-1.92566.04663-3.84094-.12549-5.749-.22571-1.89881-.22741-3.79944-.38513-5.66541-.74743-1.87927-.27918-3.71912-.72876-5.55859-1.14173-.91455-.22815-1.81714-.49853-2.72351-.74621-.90943-.23828-1.804-.52075-2.68982-.82727a78.41,78.41,0,0,1-10.35022-4.19275c-13.36511-6.45752-24.75891-15.959-34.20948-26.78614a125.96487,125.96487,0,0,0,17.25367,12.71534c3.01367,1.87964,6.14868,3.535,9.30066,5.10412a96.67387,96.67387,0,0,0,9.7185,4.01355,83.37355,83.37355,0,0,0,10.00794,2.79846c.83862.19507,1.68066.36622,2.53.49268.84716.13635,1.68884.29626,2.53527.41418,1.69947.19178,3.38758.42432,5.08509.49061,1.69128.15014,3.38513.10034,5.06689.12963,1.68176-.09814,3.3595-.1156,5.018-.33984,1.66577-.13184,3.30273-.45642,4.93762-.71973,1.61523-.3833,3.24158-.67749,4.81164-1.1936a88.77957,88.77957,0,0,0,9.36377-3.08691l2.27442-.97522,2.20166-1.14356a24.53007,24.53007,0,0,0,2.16479-1.21814l2.13074-1.2865a76.65773,76.65773,0,0,0,15.15344-13.23987,94.513,94.513,0,0,0,11.74561-16.66406,99.43767,99.43767,0,0,0,7.91089-18.87158,126.0709,126.0709,0,0,0,4.92248-40.95361,162.3927,162.3927,0,0,0-2.08594-20.79041,183.50872,183.50872,0,0,0-4.53906-20.47815c-.46191-1.68908-.96-3.36816-1.48157-5.04065l-.38317-1.25659-.048-.157c-.02575-.08814-.02856-.08814.00171.00561a2.68728,2.68728,0,0,0,.13538.31116,2.271,2.271,0,0,0,.30359.44946,1.97482,1.97482,0,0,0,.7135.51685,2.48238,2.48238,0,0,0,.55774.15723,2.57406,2.57406,0,0,0,.3717.02844c.06689.00024.14331.00244.21436-.00415.11889-.0116.084-.01.00622.00012l-5.18787.61182c-1.72485.23291-3.441.52343-5.1621.78088a156.25759,156.25759,0,0,0-20.292,4.811,164.99157,164.99157,0,0,0-37.91723,17.37341,221.14941,221.14941,0,0,0-33.39746,25.57812,349.05038,349.05038,0,0,0-29.28858,30.72986q-6.91552,8.10792-13.51575,16.52051c-4.40344,5.60754-8.85681,11.40088-13.77539,16.94067-4.93579,5.52076-10.2677,10.92469-16.87011,15.32129A40.39012,40.39012,0,0,1,70.23218,144.965a26.75164,26.75164,0,0,1-13.02747.51855,30.132,30.132,0,0,1-11.60815-5.36609l-1.25122-.91907-1.15308-.993a29.67318,29.67318,0,0,1-2.22961-2.03943c-.69361-.71167-1.4148-1.40551-2.08008-2.13733l-1.90845-2.256A66.25935,66.25935,0,0,1,25.8197,111.48621a90.63665,90.63665,0,0,1-3.10107-10.98963c-.33777-1.86169-.72913-3.71863-.99878-5.58813-.23633-1.87232-.55554-3.73926-.68262-5.61951l-.24756-2.81641c-.06762-.93945-.09009-1.88049-.13635-2.8208-.10388-1.88073-.12707-3.76147-.13452-5.64416q-.03406-1.4123.016-2.824l.08167-2.82483c.13049-1.87976.29357-3.76025.585-5.62475l.49353-2.78894.12768-.69544.064-.34753c.04858-.25.11291-.53955.18274-.80383a7.7561,7.7561,0,0,1,1.72021-3.11853,7.29686,7.29686,0,0,1,3.15418-2.04444,7.38764,7.38764,0,0,1,3.63916-.23144c.27807.0553.56921.13073.82263.20337l.32837.11828.65649.23645,1.31177.4729,2.61658.95313,2.58081,1.03662c1.72851.6665,3.41125,1.4375,5.10046,2.18323A149.23675,149.23675,0,0,1,63.35925,72.3877a200.73887,200.73887,0,0,1,17.6803,12.75683C86.64746,89.72876,92.04956,94.51831,97.19067,99.56055Z" transform="translate(-1.21326 -1.05026)" fill="#fff"/><path d="M144.12646,118.47034a93.02144,93.02144,0,0,0,17.70521,11.94323,64.2036,64.2036,0,0,0,19.72827,6.54749,45.09824,45.09824,0,0,0,19.85266-1.26953,41.16805,41.16805,0,0,0,8.92126-3.95349A47.01742,47.01742,0,0,0,218.12,125.8606a71.87631,71.87631,0,0,0,13.06359-15.01514,76.26031,76.26031,0,0,0,8.53382-18.30188,98.24461,98.24461,0,0,0,4.12219-20.00989,117.6216,117.6216,0,0,0,.15161-20.63757,136.19514,136.19514,0,0,0-3.15271-20.51428l-.06763-.31788c-.0177-.08728-.02026-.08825-.00146-.00659a1.09473,1.09473,0,0,0,.04529.141,2.21137,2.21137,0,0,0,.239.50208,2.12861,2.12861,0,0,0,.72034.68774,2.34052,2.34052,0,0,0,1.14856.31226c.886-.0686-.01856.04077-.34693.12842-1.68164.34533-3.36963.65918-5.04712,1.02527l-4.99829,1.26977-4.93969,1.50684a144.67181,144.67181,0,0,0-36.958,18.82885A193.757,193.757,0,0,0,174.074,68.37708c-5.30029,4.60168-10.45471,9.44274-15.23791,14.49169-9.63135,10.15638-18.20227,21.541-27.09631,32.87305-8.87537,11.33508-18.09424,22.776-29.06128,32.83276l-2.04834,1.88746-2.19556,1.86108c-1.49731,1.20715-3.01843,2.39233-4.62012,3.485a61.98684,61.98684,0,0,1-10.18322,5.75817,49.28358,49.28358,0,0,1-23.33289,4.31629,48.39841,48.39841,0,0,1-22.52551-7.5531,65.90818,65.90818,0,0,1-16.95691-15.83618A95.09649,95.09649,0,0,1,9.48975,122.76758a107.04352,107.04352,0,0,1-6.38-21.661l-.48266-2.77686c-.17237-.92431-.3191-1.85156-.40784-2.78552-.20813-1.86389-.44348-3.72644-.62354-5.59229l-.32495-5.61071c-.08508-1.87049-.03564-3.74244-.05749-5.61365A130.2004,130.2004,0,0,1,3.41553,56.43616L4.572,50.95l1.43067-5.42383c.46008-1.81274,1.11694-3.57116,1.66821-5.35864l.43286-1.3352.24231-.73121a7.64726,7.64726,0,0,1,.939-1.76879,7.99125,7.99125,0,0,1,2.69361-2.369,7.677,7.677,0,0,1,3.72339-.93775c.17541-.00195.36865.01428.55188.02845.21582.01818.366.038.37793.04235l.3457.05432.69141.10853,1.38281.21777,2.76538.437c1.85144.25549,3.66089.70349,5.4939,1.04614l2.74609.535c.9093.2008,1.80884.44055,2.70984.67529a50.73059,50.73059,0,0,1,5.34949,1.59229,155.60859,155.60859,0,0,1,20.28613,8.93078A175.99511,175.99511,0,0,1,77.20154,57.974c6.00317,4.11633,11.82837,8.43909,17.40649,13.03882,5.56128,4.62158,10.97571,9.38244,16.19165,14.34314a310.61683,310.61683,0,0,0-36.357-22.77979c-3.13758-1.66772-6.34558-3.17859-9.52637-4.71765-3.23084-1.43518-6.43909-2.89856-9.72717-4.14807a146.76866,146.76866,0,0,0-19.94654-6.36963l-1.255-.33691c-.42395-.08936-.84461-.1897-1.26453-.29212-.84326-.19275-1.67517-.425-2.50976-.64892l-2.49988-.68775-2.52222-.58056c-1.687-.35914-3.36157-.80835-5.07239-1.02588l-2.55407-.403-1.27686-.20239-.63843-.10132-.31921-.05078c-.09839-.01623-.05981-.00757.044.00391l.21606.00976a2.29453,2.29453,0,0,0,1.14563-.26562,1.9767,1.9767,0,0,0,.68408-.61121,2.34755,2.34755,0,0,0,.3075-.58447l-.17676.54809-.39575,1.22669c-.50318,1.64331-1.11414,3.25293-1.53345,4.92261l-1.31763,4.98962-1.06421,5.05273A120.22553,120.22553,0,0,0,11.21277,78.824c.02331,1.718-.02808,3.43958.05139,5.15455l.29688,5.14184c.16674,1.70642.38476,3.40686.57165,5.111.07825.85486.21314,1.69983.37231,2.54065l.44031,2.52869a97.0784,97.0784,0,0,0,5.75843,19.58081,85.17011,85.17011,0,0,0,10.06347,17.54736,55.961,55.961,0,0,0,14.33521,13.43933,38.37437,38.37437,0,0,0,17.88476,6.03821A39.26439,39.26439,0,0,0,79.58386,152.422a52.01657,52.01657,0,0,0,8.53284-4.83191c1.36609-.92908,2.67761-1.95459,3.97546-2.99829l1.913-1.62049,1.91064-1.7633c10.234-9.37354,19.14453-20.3739,27.952-31.63318,8.83423-11.24561,17.55847-22.868,27.701-33.57532,5.09509-5.375,10.42309-10.374,15.96411-15.18652a203.69675,203.69675,0,0,1,17.395-13.56665,154.62359,154.62359,0,0,1,39.556-20.12073L229.846,25.491l5.44067-1.38233c1.82861-.40088,3.67139-.74658,5.50684-1.11975l.689-.13721a5.53711,5.53711,0,0,1,.58325-.09436A7.12017,7.12017,0,0,1,243.101,22.702a7.65511,7.65511,0,0,1,3.708,1.04626,7.8565,7.8565,0,0,1,3.47632,4.23938l.13879.46423c.05249.18885.07739.29651.08045.31971l.073.34045a146.19207,146.19207,0,0,1,3.38477,22.02356,127.56919,127.56919,0,0,1-.17151,22.38477,108.23456,108.23456,0,0,1-4.55762,22.09753,86.24542,86.24542,0,0,1-9.63,20.62292A90.43608,90.43608,0,0,1,232.767,125.439a45.75735,45.75735,0,0,1-8.21118,8.20569,51.117,51.117,0,0,1-21.28,9.67163,50.21122,50.21122,0,0,1-22.85437-.97949,68.28985,68.28985,0,0,1-20.0791-9.41528A89.39322,89.39322,0,0,1,144.12646,118.47034Z" transform="translate(-1.21326 -1.05026)" fill="#fff"/><path d="M443.18994,93.457v29.15039H431.96973V96.53711c0-14.08008-4.83985-19.58008-13.2002-19.58008-9.3501,0-13.75,6.27-13.75,19.58008v26.07031H393.79932V96.53711c0-14.08008-4.94971-19.58008-13.31006-19.58008-9.3501,0-13.75,6.27-13.75,19.58008v26.07031H355.519V66.50732h11.22022v7.36963c3.30029-5.06006,8.47021-7.91992,16.06006-7.91992,6.49023,0,13.86035,2.41992,18.26025,9.8999,4.3999-6.37988,11.22022-9.8999,20.02-9.8999C431.08984,65.957,443.18994,71.78711,443.18994,93.457Z" transform="translate(-1.21326 -1.05026)" fill="#fff"/><path d="M443.18994,93.457v29.15039H431.96973V96.53711c0-14.08008-4.83985-19.58008-13.2002-19.58008-9.3501,0-13.75,6.27-13.75,19.58008v26.07031H393.79932V96.53711c0-14.08008-4.94971-19.58008-13.31006-19.58008-9.3501,0-13.75,6.27-13.75,19.58008v26.07031H355.519V66.50732h11.22022v7.36963c3.30029-5.06006,8.47021-7.91992,16.06006-7.91992,6.49023,0,13.86035,2.41992,18.26025,9.8999,4.3999-6.37988,11.22022-9.8999,20.02-9.8999C431.08984,65.957,443.18994,71.78711,443.18994,93.457Z" transform="translate(-1.21326 -1.05026)" fill="none" stroke="#fff"/><path d="M511.06006,66.50732v56.1001H499.83984v-7.70019a27.95407,27.95407,0,0,1-20.13037,8.80029c-15.3999,0-26.83984-12.87012-26.83984-28.82031,0-16.06006,11.43994-28.93018,26.83984-28.93018a27.95407,27.95407,0,0,1,20.13037,8.80029v-8.25ZM499.83984,94.88721c0-10.77979-7.81-19.25-17.93017-19.25-10.33985,0-17.81983,8.47021-17.81983,19.25,0,10.66992,7.48,19.14013,17.81983,19.14013C492.02979,114.02734,499.83984,105.55713,499.83984,94.88721Z" transform="translate(-1.21326 -1.05026)" fill="#fff"/><path d="M511.06006,66.50732v56.1001H499.83984v-7.70019a27.95407,27.95407,0,0,1-20.13037,8.80029c-15.3999,0-26.83984-12.87012-26.83984-28.82031,0-16.06006,11.43994-28.93018,26.83984-28.93018a27.95407,27.95407,0,0,1,20.13037,8.80029v-8.25Z" transform="translate(-1.21326 -1.05026)" fill="none" stroke="#fff"/><path d="M499.83984,94.88721c0-10.77979-7.81-19.25-17.93017-19.25-10.33985,0-17.81983,8.47021-17.81983,19.25,0,10.66992,7.48,19.14013,17.81983,19.14013C492.02979,114.02734,499.83984,105.55713,499.83984,94.88721Z" transform="translate(-1.21326 -1.05026)" fill="none" stroke="#fff"/><path d="M520.84961,107.86719l10.12012-3.40967c1.65039,6.15967,6.49023,9.67969,13.09033,9.67969,6.71,0,11.33008-2.85987,11.21973-7.91992-.10987-10.23-31.79-2.97022-31.79-23.1001,0-10.56006,8.36035-17.16016,20.24023-17.16016,9.79,0,18.81006,4.62012,20.68018,14.52l-9.79,3.08008c-.99024-4.94971-4.84033-8.02979-10.56006-8.02979-6.05029,0-9.57031,2.96973-9.57031,6.81983,0,11.10986,31.90039,2.53027,31.90039,23.54,0,11.43994-10.01026,17.82031-22.33008,17.82031C533.16992,123.70752,524.36963,118.42725,520.84961,107.86719Z" transform="translate(-1.21326 -1.05026)" fill="#fff"/><path d="M520.84961,107.86719l10.12012-3.40967c1.65039,6.15967,6.49023,9.67969,13.09033,9.67969,6.71,0,11.33008-2.85987,11.21973-7.91992-.10987-10.23-31.79-2.97022-31.79-23.1001,0-10.56006,8.36035-17.16016,20.24023-17.16016,9.79,0,18.81006,4.62012,20.68018,14.52l-9.79,3.08008c-.99024-4.94971-4.84033-8.02979-10.56006-8.02979-6.05029,0-9.57031,2.96973-9.57031,6.81983,0,11.10986,31.90039,2.53027,31.90039,23.54,0,11.43994-10.01026,17.82031-22.33008,17.82031C533.16992,123.70752,524.36963,118.42725,520.84961,107.86719Z" transform="translate(-1.21326 -1.05026)" fill="none" stroke="#fff"/><path d="M631.17969,66.50732V170H619.95947V114.35742a27.95358,27.95358,0,0,1-20.13037,8.79981c-15.3999,0-26.83984-12.87012-26.83984-28.93018,0-15.94971,11.43994-28.81982,26.83984-28.81982a27.95357,27.95357,0,0,1,20.13037,8.7998V66.50732ZM619.95947,94.22705c0-10.66992-7.81006-19.14014-17.93017-19.14014-10.33985,0-17.81983,8.47022-17.81983,19.14014,0,10.78027,7.48,19.25049,17.81983,19.25049C612.14941,113.47754,619.95947,105.00732,619.95947,94.22705Z" transform="translate(-1.21326 -1.05026)" fill="#fff"/><path d="M631.17969,66.50732V170H619.95947V114.35742a27.95358,27.95358,0,0,1-20.13037,8.79981c-15.3999,0-26.83984-12.87012-26.83984-28.93018,0-15.94971,11.43994-28.81982,26.83984-28.81982a27.95357,27.95357,0,0,1,20.13037,8.7998V66.50732Z" transform="translate(-1.21326 -1.05026)" fill="none" stroke="#fff"/><path d="M619.95947,94.22705c0-10.66992-7.81006-19.14014-17.93017-19.14014-10.33985,0-17.81983,8.47022-17.81983,19.14014,0,10.78027,7.48,19.25049,17.81983,19.25049C612.14941,113.47754,619.95947,105.00732,619.95947,94.22705Z" transform="translate(-1.21326 -1.05026)" fill="none" stroke="#fff"/><path d="M696.40918,66.50732v56.1001H685.189v-8.14013a21.54643,21.54643,0,0,1-17.81982,8.68994c-10.12012,0-23.32031-5.83008-23.32031-27.5V66.50732H655.269V92.57715c0,14.08008,6.04981,19.58008,14.74024,19.58008,9.56982,0,15.17968-6.27,15.17968-19.58008V66.50732Z" transform="translate(-1.21326 -1.05026)" fill="#fff"/><path d="M696.40918,66.50732v56.1001H685.189v-8.14013a21.54643,21.54643,0,0,1-17.81982,8.68994c-10.12012,0-23.32031-5.83008-23.32031-27.5V66.50732H655.269V92.57715c0,14.08008,6.04981,19.58008,14.74024,19.58008,9.56982,0,15.17968-6.27,15.17968-19.58008V66.50732Z" transform="translate(-1.21326 -1.05026)" fill="none" stroke="#fff"/><path d="M735.67871,113.14746c7.26025,0,12.87012-3.8501,14.96-8.68994h11.77a28.88,28.88,0,1,1,1.65039-9.57031,25.77574,25.77574,0,0,1-.33008,4.18017H718.18848A17.97892,17.97892,0,0,0,735.67871,113.14746Zm17.27-23.21045a17.96445,17.96445,0,0,0-34.76025,0Z" transform="translate(-1.21326 -1.05026)" fill="#fff"/><path d="M735.67871,113.14746c7.26025,0,12.87012-3.8501,14.96-8.68994h11.77a28.88,28.88,0,1,1,1.65039-9.57031,25.77574,25.77574,0,0,1-.33008,4.18017H718.18848A17.97892,17.97892,0,0,0,735.67871,113.14746Z" transform="translate(-1.21326 -1.05026)" fill="none" stroke="#fff"/><path d="M752.94873,89.937a17.96445,17.96445,0,0,0-34.76025,0Z" transform="translate(-1.21326 -1.05026)" fill="none" stroke="#fff"/><path d="M804.97949,66.397V78.82715c-11.33008-3.74024-19.80029,2.53027-19.80029,13.53027v30.25H773.959V66.50732H785.1792v7.48C789.13916,68.37695,795.51953,65.40723,804.97949,66.397Z" transform="translate(-1.21326 -1.05026)" fill="#fff"/><path d="M804.97949,66.397V78.82715c-11.33008-3.74024-19.80029,2.53027-19.80029,13.53027v30.25H773.959V66.50732H785.1792v7.48C789.13916,68.37695,795.51953,65.40723,804.97949,66.397Z" transform="translate(-1.21326 -1.05026)" fill="none" stroke="#fff"/><path d="M868.01123,66.50732v56.1001H856.791v-7.70019a27.95411,27.95411,0,0,1-20.13038,8.80029c-15.3999,0-26.83984-12.87012-26.83984-28.82031,0-16.06006,11.43994-28.93018,26.83984-28.93018A27.95411,27.95411,0,0,1,856.791,74.75732v-8.25ZM856.791,94.88721c0-10.77979-7.81006-19.25-17.93018-19.25-10.33984,0-17.81982,8.47021-17.81982,19.25,0,10.66992,7.48,19.14013,17.81982,19.14013C848.981,114.02734,856.791,105.55713,856.791,94.88721Z" transform="translate(-1.21326 -1.05026)" fill="#fff"/><path d="M868.01123,66.50732v56.1001H856.791v-7.70019a27.95411,27.95411,0,0,1-20.13038,8.80029c-15.3999,0-26.83984-12.87012-26.83984-28.82031,0-16.06006,11.43994-28.93018,26.83984-28.93018A27.95411,27.95411,0,0,1,856.791,74.75732v-8.25Z" transform="translate(-1.21326 -1.05026)" fill="none" stroke="#fff"/><path d="M856.791,94.88721c0-10.77979-7.81006-19.25-17.93018-19.25-10.33984,0-17.81982,8.47021-17.81982,19.25,0,10.66992,7.48,19.14013,17.81982,19.14013C848.981,114.02734,856.791,105.55713,856.791,94.88721Z" transform="translate(-1.21326 -1.05026)" fill="none" stroke="#fff"/><path d="M936.981,34.60693v88.00049H925.76074v-7.70019a27.95407,27.95407,0,0,1-20.13037,8.80029c-15.3999,0-26.83984-12.87012-26.83984-28.82031,0-16.06006,11.43994-28.93018,26.83984-28.93018a27.95407,27.95407,0,0,1,20.13037,8.80029V34.60693ZM925.76074,94.88721c0-10.77979-7.81006-19.25-17.93017-19.25-10.33985,0-17.81983,8.47021-17.81983,19.25,0,10.66992,7.48,19.14013,17.81983,19.14013C917.95068,114.02734,925.76074,105.55713,925.76074,94.88721Z" transform="translate(-1.21326 -1.05026)" fill="#fff"/><path d="M936.981,34.60693v88.00049H925.76074v-7.70019a27.95407,27.95407,0,0,1-20.13037,8.80029c-15.3999,0-26.83984-12.87012-26.83984-28.82031,0-16.06006,11.43994-28.93018,26.83984-28.93018a27.95407,27.95407,0,0,1,20.13037,8.80029V34.60693Z" transform="translate(-1.21326 -1.05026)" fill="none" stroke="#fff"/><path d="M925.76074,94.88721c0-10.77979-7.81006-19.25-17.93017-19.25-10.33985,0-17.81983,8.47021-17.81983,19.25,0,10.66992,7.48,19.14013,17.81983,19.14013C917.95068,114.02734,925.76074,105.55713,925.76074,94.88721Z" transform="translate(-1.21326 -1.05026)" fill="none" stroke="#fff"/><path d="M977.34912,113.14746c7.26026,0,12.87012-3.8501,14.96-8.68994h11.77a28.88,28.88,0,1,1,1.65039-9.57031,25.77574,25.77574,0,0,1-.33008,4.18017H959.85889A17.97892,17.97892,0,0,0,977.34912,113.14746Zm17.27-23.21045a17.96445,17.96445,0,0,0-34.76025,0Z" transform="translate(-1.21326 -1.05026)" fill="#fff"/><path d="M977.34912,113.14746c7.26026,0,12.87012-3.8501,14.96-8.68994h11.77a28.88,28.88,0,1,1,1.65039-9.57031,25.77574,25.77574,0,0,1-.33008,4.18017H959.85889A17.97892,17.97892,0,0,0,977.34912,113.14746Z" transform="translate(-1.21326 -1.05026)" fill="none" stroke="#fff"/><path d="M994.61914,89.937a17.96445,17.96445,0,0,0-34.76025,0Z" transform="translate(-1.21326 -1.05026)" fill="none" stroke="#fff"/></svg>